<?xml version="1.0" encoding="utf-8"?>
<svg width="200px" height="198px" viewbox="0 0 200 198" version="1.1" xmlns:xlink="http://www.w3.org/1999/xlink" xmlns="http://www.w3.org/2000/svg">
  <defs>
    <rect width="200" height="198" id="artboard_1" />
    <clipPath id="clip_1">
      <use xlink:href="#artboard_1" clip-rule="evenodd" />
    </clipPath>
  </defs>
  <g id="logo-br-black" clip-path="url(#clip_1)">
    <g id="g10" transform="translate(7.5 14)">
      <g id="g12">
        <path d="M26.99 19.9558C30.7359 19.9558 32.9535 17.5853 32.9535 13.7627C32.9535 10.3214 31.0422 9.78665 28.7484 9.78665L27.6015 9.78665C26.6837 9.78665 26.3018 10.2459 26.0722 11.2393L24.8491 16.6674C24.5428 17.8916 24.3899 18.656 24.3899 19.1146C24.3899 19.6494 24.6962 19.9558 25.6897 19.9558L26.99 19.9558ZM22.3257 41.2107C26.9133 41.2107 29.4361 38.7641 29.4361 34.8647C29.4361 31.2718 27.4487 30.0476 24.7724 30.0476L22.9372 30.0476C22.249 30.0476 21.9438 30.201 21.7904 31.0422L20.1081 38.7641C19.9558 39.529 19.8029 40.1406 19.8029 40.5225C19.8029 40.9817 20.0325 41.2107 20.7963 41.2107L22.3257 41.2107ZM0 49.6214C0 49.1628 0.382317 47.4811 0.688311 46.0279L10.3216 1.37591C10.551 0.305762 11.0867 0 12.2331 0L34.8648 0C45.4925 0 50.3858 3.13491 50.3858 10.8574C50.3858 20.3377 43.7341 23.0901 39.1466 24.0847C38.5351 24.2375 38.2293 24.3898 38.2293 24.6962C38.2293 25.0781 38.4583 25.3077 39.2227 25.4606C42.0519 26.0721 47.7102 28.213 47.7102 35.4001C47.7102 46.1807 38.9175 50.9979 25.3078 50.9979L1.8349 50.9979C0.611753 50.9979 0 50.5387 0 49.6214" transform="translate(0 94.02791)" id="path14" fill="#FFFFFF" fill-rule="evenodd" stroke="none" />
        <path d="M34.559 20.3376C34.559 17.3562 33.8707 13.2273 29.6657 13.2273C22.7082 13.2273 19.3437 24.4666 19.3437 32.6477C19.3437 36.2412 20.108 39.9877 24.1608 39.9877C31.3473 39.9877 34.559 28.6716 34.559 20.3376L34.559 20.3376ZM0 33.6417C0 14.9096 10.551 0 31.7298 0C45.4925 0 53.3678 6.57498 53.3678 19.9552C53.3678 37.6171 43.7341 53.2917 22.1722 53.2917C8.79204 53.2917 6.75507e-06 47.0986 6.75507e-06 33.6417" transform="translate(50.6922 92.88103)" id="path16" fill="#FFFFFF" fill-rule="evenodd" stroke="none" />
        <path d="M2.82915 51.3804C0.99459 50.7683 0 50.3097 0 48.7803C0 47.4038 1.60611 40.5992 1.91128 39.2994C2.21762 38.0764 2.67627 37.6171 3.51739 37.6171C5.12293 37.6171 9.02222 41.2107 15.6745 41.2107C19.5733 41.2107 21.0259 39.9877 21.0259 37.7706C21.0259 35.0943 18.9617 34.1765 15.2153 31.5775L13.9155 30.5829C9.02222 26.9894 6.0402 23.6254 6.0402 16.668C6.0402 5.65829 13.7627 0 28.2136 0C33.4127 0 39.3761 0.764391 42.9697 2.36992C44.3462 2.98145 44.6519 3.51739 44.6519 4.74043C44.6519 5.73444 43.1993 12.0804 42.511 14.2213C42.282 14.9857 42.0524 15.6734 40.9055 15.6734C38.9175 15.6734 35.4768 12.1566 29.3599 12.1566C26.5313 12.1566 24.62 12.6919 24.62 14.6799C24.62 17.1266 27.6015 18.3502 31.4246 21.1794L33.183 22.5553C37.9235 26.0727 39.9876 29.6662 39.9876 35.7826C39.9876 47.0219 33.0302 53.2917 16.0564 53.2917C10.093 53.2917 6.42268 52.5267 2.82913 51.3804" transform="translate(101.15473 92.88103)" id="path18" fill="#FFFFFF" fill-rule="evenodd" stroke="none" />
        <path d="M2.82915 51.3804C0.993995 50.7683 0 50.3097 0 48.7803C0 47.4038 1.60552 40.5992 1.91128 39.2994C2.21703 38.0764 2.67625 37.6171 3.51739 37.6171C5.12232 37.6171 9.02222 41.2107 15.6739 41.2107C19.5732 41.2107 21.0259 39.9877 21.0259 37.7706C21.0259 35.0943 18.9617 34.1765 15.2153 31.5775L13.9155 30.5829C9.02222 26.9894 6.04018 23.6254 6.04018 16.668C6.04018 5.65829 13.7627 0 28.213 0C33.4121 0 39.3761 0.764391 42.9691 2.36992C44.3456 2.98145 44.6513 3.51739 44.6513 4.74043C44.6513 5.73444 43.1987 12.0804 42.5104 14.2213C42.2814 14.9857 42.0524 15.6734 40.9049 15.6734C38.9169 15.6734 35.4762 12.1566 29.3599 12.1566C26.5313 12.1566 24.62 12.6919 24.62 14.6799C24.62 17.1266 27.6009 18.3502 31.4246 21.1794L33.1825 22.5553C37.9235 26.0727 39.9876 29.6662 39.9876 35.7826C39.9876 47.0219 33.0302 53.2917 16.0564 53.2917C10.0924 53.2917 6.4221 52.5267 2.82915 51.3804" transform="translate(142.28928 92.88103)" id="path20" fill="#FFFFFF" fill-rule="evenodd" stroke="none" />
        <path d="M6.88075 8.29679C8.29722 8.29679 9.28798 7.56073 9.28798 5.71968C9.28798 4.07756 8.55197 3.22816 6.82426 3.22816L5.86166 3.22816C5.60683 3.22816 5.49345 3.34091 5.49345 3.62482L5.49345 7.95679C5.49345 8.18345 5.60684 8.29679 5.80517 8.29679L6.88075 8.29679ZM6.75507e-06 18.4063L6.75507e-06 0.509386C6.75507e-06 0.169404 0.141789 0 0.481191 0L7.61746 0C12.7425 0 14.8096 1.30213 14.8096 5.60636C14.8096 8.01346 13.5075 9.93951 11.7516 10.59C11.4969 10.6756 11.4115 10.76 11.4115 10.9022C11.4115 10.9866 11.4399 11.0433 11.5252 11.185L15.6029 18.0379C15.8296 18.3496 15.8296 18.4907 15.8296 18.6046C15.8296 18.7741 15.7157 18.8873 15.489 18.8873L10.3924 18.8873C10.0523 18.8873 9.79755 18.7457 9.65642 18.4907L6.25825 12.035C6.1448 11.865 6.08831 11.7516 5.83349 11.7516L5.66332 11.7516C5.49344 11.7516 5.40856 11.8366 5.40856 12.0066L5.40856 18.4063C5.40856 18.7457 5.23862 18.8873 4.87089 18.8873L0.509579 18.8873C0.141782 18.8873 0 18.7457 0 18.4063" transform="translate(2.8240662 151.36057)" id="path22" fill="#FFFFFF" fill-rule="evenodd" stroke="none" />
        <path d="M0 18.4063L0 0.537731C0 0.141073 0.141661 0 0.5094 0L12.205 0C12.5733 0 12.771 0.141073 12.771 0.509386L12.771 3.48256C12.771 3.87922 12.5733 3.99257 12.205 3.99257L5.89028 3.99257C5.72028 3.99257 5.60695 4.10589 5.60695 4.33255L5.60695 6.9374C5.60695 7.13573 5.72028 7.24907 5.91802 7.24907L10.8172 7.24907C11.1566 7.24907 11.3272 7.39014 11.3272 7.73072L11.3272 10.7039C11.3272 11.0433 11.1566 11.185 10.8172 11.185L5.91802 11.185C5.72028 11.185 5.60695 11.2989 5.60695 11.5244L5.60695 14.4981C5.60695 14.7815 5.72028 14.8942 5.94635 14.8942L12.8283 14.8942C13.2238 14.8942 13.3093 15.0642 13.3093 15.4047L13.3093 18.4063C13.3093 18.7457 13.2238 18.8873 12.8283 18.8873L0.5094 18.8873C0.141661 18.8873 0 18.7174 0 18.4063" transform="translate(21.910782 151.36057)" id="path24" fill="#FFFFFF" fill-rule="evenodd" stroke="none" />
        <path d="M5.38087 17.8396L0.0855868 0.848802C0.0283308 0.651054 0 0.481069 0 0.367733C0 0.141073 0.142255 0 0.453326 0L5.12588 0C5.38088 0 5.60695 0.0849923 5.66362 0.339402L9.14679 13.8469C9.23178 14.1582 9.28845 14.2721 9.45845 14.2721C9.65678 14.2721 9.71285 14.1863 9.79785 13.8753L13.4504 0.396063C13.5077 0.169404 13.6204 0 13.9893 0L18.2086 0C18.4636 0 18.5763 0.169404 18.5763 0.367733C18.5763 0.537731 18.5196 0.76439 18.4636 0.906044L12.9977 17.8112C12.7716 18.5762 12.5444 18.8873 11.7516 18.8873L6.62635 18.8873C5.97528 18.8873 5.63528 18.7174 5.38089 17.8396" transform="translate(37.966637 151.36057)" id="path26" fill="#FFFFFF" fill-rule="evenodd" stroke="none" />
        <path d="M13.6487 9.93952C13.6487 5.80469 12.29 3.96424 9.71284 3.96424C7.193 3.96424 5.77635 5.74862 5.77635 9.96785C5.77635 13.847 7.05132 15.7725 9.68391 15.7725C12.29 15.7725 13.6487 13.8753 13.6487 9.93952L13.6487 9.93952ZM0 9.96785C0 4.21924 3.02984 0 9.71285 0C16.1125 0 19.4257 3.93591 19.4257 9.91117C19.4257 15.5742 16.3675 19.7375 9.71285 19.7375C3.31317 19.7375 0 15.8576 0 9.96785" transform="translate(57.619576 150.93558)" id="path28" fill="#FFFFFF" fill-rule="evenodd" stroke="none" />
        <path d="M1.35101e-05 18.3208L1.35101e-05 0.509386C1.35101e-05 0.197734 0.141667 0 0.5094 0L5.15362 0C5.52135 0 5.63527 0.197734 5.63527 0.509386L5.63527 14.5265C5.63527 14.8098 5.77693 14.8942 6.03134 14.8942L11.4116 14.8942C11.7799 14.8942 11.8927 15.0925 11.8927 15.4326L11.8927 18.4063C11.8927 18.7174 11.7799 18.8873 11.4116 18.8873L0.509387 18.8873C0.169985 18.8873 0 18.7457 0 18.3208" transform="translate(80.16068 151.36057)" id="path30" fill="#FFFFFF" fill-rule="evenodd" stroke="none" />
        <path d="M2.70203e-05 11.921L2.70203e-05 0.509387C2.70203e-05 0.226646 0.141681 0 0.510008 0L5.06924 0C5.40864 0 5.52196 0.226646 5.52196 0.509387L5.52196 11.1283C5.52196 13.5638 6.25862 15.0642 8.83572 15.0642C11.2989 15.0642 12.0356 13.6203 12.0356 11.3266L12.0356 0.509387C12.0356 0.226646 12.1483 0 12.4883 0L16.5092 0C16.8492 0 16.9909 0.226646 16.9909 0.509387L16.9909 11.8366C16.9909 16.9613 14.3571 19.3125 8.29739 19.3125C2.52044 19.3125 0 17.0469 0 11.921" transform="translate(94.51716 151.36057)" id="path32" fill="#FFFFFF" fill-rule="evenodd" stroke="none" />
        <path d="M5.04028 18.4063L5.04028 4.4453C5.04028 4.1909 4.92637 4.07756 4.72862 4.07756L0.509386 4.07756C0.141059 4.07756 0 3.90757 0 3.56757L0 0.509386C0 0.141073 0.141059 0 0.509386 0L15.2064 0C15.5742 0 15.7158 0.169404 15.7158 0.509386L15.7158 3.56757C15.7158 3.90757 15.5742 4.07756 15.2064 4.07756L11.015 4.07756C10.7883 4.07756 10.6756 4.1909 10.6756 4.4453L10.6756 18.4063C10.6756 18.7457 10.5056 18.8873 10.1939 18.8873L5.52135 18.8873C5.21028 18.8873 5.0403 18.7457 5.0403 18.4063" transform="translate(114.369064 151.36057)" id="path34" fill="#FFFFFF" fill-rule="evenodd" stroke="none" />
        <path d="M0 18.4063L0 0.509386C0 0.169404 0.169985 0 0.537731 0L5.12588 0C5.46528 0 5.63527 0.169404 5.63527 0.509386L5.63527 18.4063C5.63527 18.7457 5.40861 18.8873 5.12588 18.8873L0.5094 18.8873C0.169998 18.8873 1.35101e-05 18.7457 1.35101e-05 18.4063" transform="translate(133.05809 151.36057)" id="path36" fill="#FFFFFF" fill-rule="evenodd" stroke="none" />
        <path d="M13.6487 9.93952C13.6487 5.80469 12.2894 3.96424 9.71285 3.96424C7.19241 3.96424 5.77636 5.74862 5.77636 9.96785C5.77636 13.847 7.05076 15.7725 9.68452 15.7725C12.2894 15.7725 13.6487 13.8753 13.6487 9.93952L13.6487 9.93952ZM0 9.96785C0 4.21924 3.02985 0 9.71285 0C16.1125 0 19.4251 3.93591 19.4251 9.91117C19.4251 15.5742 16.3675 19.7375 9.71285 19.7375C3.31259 19.7375 0 15.8576 0 9.96785" transform="translate(141.80821 150.93558)" id="path38" fill="#FFFFFF" fill-rule="evenodd" stroke="none" />
        <path d="M1.35101e-05 18.4063L1.35101e-05 0.566061C1.35101e-05 0.197734 0.141667 0 0.5094 0L6.938 0C7.44738 0 7.61739 0.169404 7.75847 0.453319L12.4027 12.4877C12.4593 12.6577 12.5443 12.7144 12.6577 12.7144C12.8277 12.7144 12.856 12.601 12.856 12.431L12.856 0.594392C12.856 0.197734 12.9687 0 13.3937 0L16.6502 0C17.0186 0 17.1886 0.169417 17.1886 0.594392L17.1886 18.1513C17.1886 18.7174 17.0469 18.8873 16.5086 18.8873L10.9016 18.8873C9.99558 18.8873 9.74119 18.7457 9.31619 17.698L4.78529 6.62635C4.7003 6.42802 4.67256 6.37136 4.5303 6.37136C4.38863 6.37136 4.33196 6.45577 4.33196 6.6541L4.33196 18.4063C4.33196 18.7457 4.21922 18.8873 3.79421 18.8873L0.509386 18.8873C0.169985 18.8873 0 18.7457 0 18.4063" transform="translate(164.34932 151.36057)" id="path40" fill="#FFFFFF" fill-rule="evenodd" stroke="none" />
        <path d="M41.4655 44.8591C41.5293 44.698 41.4632 44.5221 41.3168 44.4288C39.4616 43.2501 29.2989 36.7972 24.7568 33.9114C23.388 33.042 22.2683 31.8378 21.4974 30.4106L14.4183 17.2996L13.867 16.2861C13.8623 16.2766 13.8611 16.2672 13.857 16.2583L13.8463 16.24L13.8505 16.243C13.5565 15.661 13.468 15.0548 13.5465 14.4852C13.5925 14.1499 13.6811 13.8235 13.8552 13.5325C14.2902 12.8029 15.0487 12.3791 15.9353 12.3673L29.8284 12.3803L30.087 12.3809C30.1761 12.385 30.2511 12.3738 30.3378 12.375C30.8803 12.3844 31.3596 12.3189 31.8052 12.2103C31.8123 12.2085 31.8194 12.2073 31.8271 12.205C32.4953 12.0385 33.069 11.7528 33.5276 11.3095C34.4703 10.3987 35.0133 8.88234 34.9803 7.25203L34.9833 7.05842C34.9844 6.95335 34.985 6.85891 34.9862 6.74971C34.9904 6.27099 34.9945 5.85369 34.9986 5.47827C34.988 5.31064 34.8882 5.18372 34.7412 5.16129L9.82547 0C9.77353 0.00294521 9.70151 0.0454481 9.63954 0.112729L0.296196 14.8665C-0.0691719 15.4431 -0.0992725 16.1674 0.221242 16.7695C2.65431 21.3423 14.0317 42.5264 14.2525 43.0045C14.5582 43.6674 14.076 53.8394 14.076 55.4798L14.076 55.9916C14.076 56.1604 14.217 56.3009 14.3847 56.3009L41.717 56.3009C41.8917 56.3009 42.0346 56.1498 42.0346 55.9756C42.0346 55.3116 41.1096 45.7664 41.4656 44.8591" transform="translate(71.247795 27.158913)" id="path42" fill="#FFFFFF" fill-rule="evenodd" stroke="none" />
        <path d="M0.151476 14.867C0.151476 14.867 8.57577 16.6142 9.70614 16.8479C9.78405 16.8644 9.85961 16.8296 9.90151 16.7629L18.6251 2.92351C18.7626 2.70512 18.6469 2.41646 18.3961 2.35332L9.1023 0.0117369C8.93998 -0.0295906 8.76999 0.0406487 8.68439 0.184086L0.0275337 14.5825C-0.0403413 14.6952 0.0233996 14.8398 0.151489 14.867" transform="translate(96.75982 12.34389)" id="path44" fill="#FFFFFF" fill-rule="evenodd" stroke="none" />
        <path d="M0.0586476 13.911C0.032681 15.1057 -0.00803854 18.3994 0.00139155 19.9665C0.00198599 20.0321 0.0362207 20.0852 0.0923013 20.12L3.34291 22.1293C5.41121 23.2614 5.90997 22.7355 6.67615 21.6205L15.359 7.60516C15.4457 7.4641 15.4322 7.28406 15.3242 7.15832L9.29693 0.132372C9.13047 -0.0612415 8.82411 -0.0393956 8.68777 0.177821L0.0881672 13.8189C0.069861 13.8484 0.0598364 13.8773 0.0586476 13.911" transform="translate(109.38461 16.76061)" id="path46" fill="#FFFFFF" fill-rule="evenodd" stroke="none" />
        <path d="M0.151989 15.6176L10.3872 17.7379C10.4663 17.7544 10.5466 17.7196 10.5885 17.6499L19.3522 3.16771C19.4826 2.95226 19.3711 2.67189 19.1285 2.60517L9.74381 0.0139154C9.58089 -0.0315327 9.40737 0.0369232 9.31942 0.181549L0.0286145 15.3325C-0.0410303 15.4447 0.0227105 15.5911 0.151989 15.6176" transform="translate(82.839645 8.709174)" id="path48" fill="#FFFFFF" fill-rule="evenodd" stroke="none" />
        <path d="M37.8609 3.84223L36.8533 3.21066L31.8125 0.0462182C31.6702 -0.0429082 31.4819 0.000770078 31.3934 0.143613L30.1444 2.15937C29.7259 2.76971 29.2855 3.26317 28.821 3.65512C27.9769 4.36579 27.0508 4.72232 26.0178 4.72232C25.1484 4.72232 24.1992 4.45966 23.1663 3.96736C22.9685 3.87351 22.7731 3.78438 22.5689 3.67283L19.5833 1.82115C19.447 1.73734 19.2717 1.77392 19.1772 1.90378C18.9435 2.22251 18.6891 2.52238 18.4081 2.79332C17.6514 3.52465 16.7494 4.05177 15.7377 4.3776C14.8051 4.67805 13.7798 4.80791 12.6807 4.75125L0.380162 4.74121C0.0921122 4.74121 -0.0908692 5.04934 0.046664 5.30315L0.803975 6.69441C1.58254 8.12641 2.71644 9.33231 4.0959 10.1988L27.1004 24.6368C27.2786 24.7483 27.513 24.6946 27.6245 24.5164L39.1164 6.15964C39.6748 5.23469 39.1885 4.69518 38.4719 4.21942C38.2812 4.09252 38.0593 3.96797 37.8609 3.84224" transform="translate(88.56608 37.950584)" id="path50" fill="#2B6A95" fill-rule="evenodd" stroke="none" />
        <path d="M0.177915 8.47155L6.17974 12.2386C7.20679 12.8832 8.58626 12.5822 9.24854 11.5622L11.7005 7.97928C11.7967 7.8388 11.7873 7.65168 11.6781 7.52123L5.4856 0.135797C5.31914 -0.0625317 5.00807 -0.0401049 4.87173 0.18007L0.0569182 7.95093C-0.0528786 8.12741 0.000851138 8.36117 0.177928 8.47155" transform="translate(121.902985 26.915098)" id="path52" fill="#FFFFFF" fill-rule="evenodd" stroke="none" />
        <path d="M40.507 0.0916461L24.3679 25.9406C24.0084 26.5144 23.4477 26.9134 22.7878 27.0633C22.5989 27.107 22.4071 27.1288 22.2188 27.1288C21.7471 27.1288 21.285 26.996 20.8759 26.7393L0.292103 13.8201C0.12682 13.7162 -0.0691449 13.9004 0.0241156 14.0715L1.24597 16.3169C2.02452 17.7477 3.15843 18.9548 4.53848 19.8208L20.4421 29.8016C21.3729 30.3842 22.4749 30.5743 23.548 30.3269C24.6188 30.0814 25.5308 29.4339 26.1151 28.5036L41.0347 4.71228C41.9614 3.23307 41.815 1.39498 40.8269 0.0733669C40.7472 -0.0328905 40.5773 -0.0210826 40.507 0.0916596" transform="translate(93.96655 39.0668)" id="path54" fill="#FFFFFF" fill-rule="evenodd" stroke="none" />
        <path d="M4.62604 29.7483C4.02338 29.3699 3.60311 28.7779 3.44373 28.0826C3.28495 27.3872 3.40654 26.6724 3.78668 26.0697L17.2938 4.49193C17.655 3.91702 18.2152 3.51918 18.8751 3.36866C19.5315 3.21991 20.2114 3.33264 20.7846 3.69212L28.6794 8.64741C28.7692 8.7029 28.8872 8.67515 28.9421 8.58485L30.2206 6.50119C30.2749 6.41266 30.2478 6.29697 30.1592 6.24148L21.219 0.630397C20.5556 0.214257 19.8054 0 19.041 0C18.6732 0 18.3043 0.0495822 17.9389 0.148747C16.8865 0.437377 16.0152 1.1823 15.4356 2.10724L0.627567 25.7203C-0.577174 27.641 0.00482988 30.1851 1.92615 31.3898L10.9206 37.0351C11.0092 37.0906 11.1261 37.0641 11.1821 36.9755L12.4896 34.9078C12.5451 34.8193 12.5191 34.7018 12.4294 34.6457L4.62604 29.7483" transform="translate(57.808353 3.1651237)" id="path56" fill="#FFFFFF" fill-rule="evenodd" stroke="none" />
        <path d="M13.5558 10.1122L9.51366 16.6842C9.21498 17.1706 8.69613 17.438 8.16548 17.438C7.88216 17.438 7.59588 17.3619 7.33734 17.2031C6.5936 16.7456 6.36044 15.7711 6.81909 15.0268L10.8606 8.45412C11.3199 7.70863 12.295 7.479 13.0375 7.93528C13.7813 8.39332 14.0138 9.36785 13.5558 10.1122L13.5558 10.1122ZM19.9933 4.39191L13.0889 0.0581713C12.9112 -0.053382 12.6763 0.000334376 12.5648 0.178006L0.0581747 20.1568C-0.0533853 20.3344 0.000330999 20.5688 0.177996 20.6804L7.08708 25.017C7.26534 25.128 7.49967 25.0743 7.61124 24.8966L20.1131 4.91489C20.2246 4.73722 20.1709 4.50348 19.9933 4.39191" transform="translate(64.68123 10.018417)" id="path58" fill="#2B6A95" fill-rule="evenodd" stroke="none" />
        <path d="M80.3591 43.7791L65.4395 67.5704C64.8551 68.5006 63.9432 69.1481 62.8724 69.3937C61.7993 69.641 60.6973 69.451 59.7664 68.8684L43.8629 58.8875C42.4828 58.0216 41.3489 56.8145 40.5704 55.3837L39.3485 53.1383C39.2552 52.9672 39.4512 52.783 39.6165 52.8869L60.2003 65.806C60.6093 66.0628 61.0715 66.1956 61.5431 66.1956C61.7314 66.1956 61.9233 66.1738 62.1121 66.1301C62.7721 65.9802 63.3328 65.5811 63.6923 65.0074L79.8314 39.1584C79.9016 39.0457 80.0716 39.0339 80.1513 39.1401C81.1394 40.4617 81.2858 42.2998 80.3591 43.779L80.3591 43.7791ZM58.3226 83.4598L30.9903 83.4598C30.8227 83.4598 30.6816 83.3193 30.6816 83.1505L30.6816 82.6387C30.6816 80.9984 31.1639 70.8263 30.8581 70.1634C30.6374 69.6853 19.26 48.5012 16.8269 43.9284C16.5064 43.3263 16.5365 42.6021 16.9018 42.0254L26.2452 27.2716C26.3072 27.2044 26.3792 27.1619 26.4311 27.1589L51.3469 32.3202C51.4939 32.3426 51.5936 32.4696 51.6042 32.6372C51.6001 33.0126 51.596 33.4299 51.5919 33.9086C51.5907 34.0178 51.5901 34.1123 51.5889 34.2173L51.5859 34.4109C51.619 36.0413 51.076 37.5577 50.1333 38.4684C49.6747 38.9117 49.1009 39.1974 48.4327 39.3639C48.4251 39.3662 48.418 39.3674 48.4109 39.3692C47.9652 39.4778 47.4859 39.5433 46.9435 39.5339C46.8567 39.5327 46.7817 39.5439 46.6926 39.5398L46.4341 39.5392L32.541 39.5262C31.6544 39.538 30.8959 39.9618 30.4609 40.6914C30.2867 40.9824 30.1982 41.3088 30.1522 41.6441C30.0736 42.2137 30.1622 42.8199 30.4561 43.4019L30.452 43.399L30.4626 43.4172C30.4668 43.4261 30.4679 43.4356 30.4727 43.445L31.024 44.4585L38.103 57.5695C38.8739 58.9967 39.9937 60.2009 41.3625 61.0704C45.9046 63.9562 56.0672 70.409 57.9224 71.5877C58.0688 71.681 58.1349 71.8569 58.0712 72.0181C57.7153 72.9253 58.6402 82.4705 58.6402 83.1346C58.6402 83.3087 58.4974 83.4598 58.3226 83.4598L58.3226 83.4598ZM15.6558 38.073L14.3483 40.1407C14.2923 40.2292 14.1754 40.2558 14.0868 40.2003L5.09234 34.555C3.17102 33.3502 2.58902 30.8062 3.79376 28.8855L18.6018 5.27239C19.1814 4.34746 20.0527 3.60253 21.1051 3.3139C21.4705 3.21473 21.8394 3.16515 22.2072 3.16515C22.9715 3.16515 23.7218 3.37941 24.3852 3.79555L33.3254 9.40663C33.414 9.46212 33.4411 9.57781 33.3868 9.66635L32.1083 11.75C32.0534 11.8403 31.9353 11.868 31.8456 11.8126L23.9508 6.85727C23.3776 6.49779 22.6977 6.38506 22.0413 6.53381C21.3814 6.68433 20.8212 7.08217 20.4599 7.65708L6.95287 29.2349C6.57275 29.8376 6.45115 30.5524 6.60993 31.2477C6.76929 31.9431 7.18956 32.5351 7.79223 32.9134L15.5956 37.8109C15.6853 37.867 15.7113 37.9844 15.6558 38.073L15.6558 38.073ZM17.6503 34.915C17.5387 35.0927 17.3044 35.1464 17.1261 35.0354L10.2171 30.6988C10.0394 30.5872 9.98566 30.3528 10.0972 30.1752L22.6038 10.1964C22.7154 10.0187 22.9503 9.96502 23.128 10.0766L30.0323 14.4103C30.21 14.5219 30.2637 14.7556 30.1521 14.9333L17.6503 34.915ZM37.5169 8.89073C37.6049 8.74612 37.7784 8.67765 37.9413 8.7231L47.326 11.3144C47.5686 11.3811 47.6801 11.6614 47.5497 11.8769L38.786 26.3591C38.7441 26.4288 38.6638 26.4636 38.5847 26.4471L28.3495 24.3268C28.2202 24.3003 28.1565 24.1539 28.2261 24.0417L37.5169 8.89073ZM50.8021 12.528C50.8876 12.3845 51.0576 12.3143 51.22 12.3556L60.5137 14.6972C60.7646 14.7604 60.8803 15.049 60.7427 15.2674L52.0192 29.1068C51.9773 29.1735 51.9017 29.2083 51.8238 29.1918C50.6934 28.9581 42.2691 27.2109 42.2691 27.2109C42.1411 27.1837 42.0773 27.0391 42.1452 26.9263L50.8021 12.528ZM63.4302 16.9384C63.5666 16.7212 63.8729 16.6994 64.0394 16.893L70.0666 23.9189C70.1746 24.0447 70.1882 24.2247 70.1014 24.3658L61.4186 38.3811C60.6524 39.4961 60.1537 40.022 58.0854 38.8899L54.8348 36.8806C54.7787 36.8458 54.7445 36.7927 54.7439 36.7272C54.7344 35.16 54.7752 31.8663 54.8011 30.6716C54.8023 30.6379 54.8123 30.609 54.8306 30.5795L63.4302 16.9384ZM73.0404 44.1102L61.5485 62.4669C61.4369 62.6452 61.2026 62.6989 61.0243 62.5873L38.0198 48.1494C36.6404 47.2829 35.5065 46.077 34.7279 44.645L33.9706 43.2537C33.8331 42.9999 34.016 42.6918 34.3041 42.6918L46.6047 42.7018C47.7038 42.7585 48.729 42.6286 49.6617 42.3282C50.6734 42.0023 51.5753 41.4752 52.332 40.7439C52.613 40.4729 52.8674 40.1731 53.1011 39.8544C53.1956 39.7245 53.3709 39.6879 53.5072 39.7717L56.4928 41.6234C56.697 41.735 56.8924 41.8241 57.0902 41.9179C58.1231 42.4102 59.0723 42.6729 59.9417 42.6729C60.9747 42.6729 61.9009 42.3164 62.7449 41.6057C63.2095 41.2138 63.6498 40.7203 64.0683 40.1099L65.3173 38.0942C65.4058 37.9513 65.5941 37.9077 65.7364 37.9968L70.7773 41.1612L71.7849 41.7928C71.9832 41.9185 72.2052 42.0431 72.3958 42.17C73.1124 42.6457 73.5988 43.1852 73.0404 44.1102L73.0404 44.1102ZM72.7464 27.0509L78.9389 34.4363C79.0481 34.5668 79.0575 34.7539 78.9613 34.8944L76.5094 38.4773C75.8471 39.4973 74.4676 39.7983 73.4406 39.1537L67.4387 35.3866C67.2616 35.2763 67.2079 35.0425 67.3177 34.866L72.1325 27.0952C72.2689 26.875 72.58 26.8526 72.7464 27.0509L72.7464 27.0509ZM81.9623 36.396C81.8743 36.3104 81.859 36.1758 81.928 36.0743L81.9876 35.987C82.6033 35.088 82.5449 33.8886 81.8448 33.0539L74.1371 23.8605L74.1578 23.8263L67.9576 16.5937L66.3828 14.7562C65.5924 13.8348 64.6373 13.0793 63.5731 12.5238C62.9167 12.1803 62.219 11.9117 61.493 11.7282L50.6026 8.98755L38.0529 5.52268C36.6622 5.067 35.8323 5.70331 35.265 6.59816C35.1919 6.71325 35.036 6.74395 34.9197 6.67075L26.2068 1.20253C25.8125 0.95462 25.3969 0.745064 24.9684 0.569176C23.8404 0.106399 22.6168 -0.0966583 21.3979 0.0438337C20.6972 0.125286 20.0326 0.310645 19.4063 0.569176C18.0216 1.14291 16.8452 2.11803 16.0329 3.41307L10.3197 12.5239L7.76744 16.5937L1.11336 27.2044C-1.02223 30.609 0.00660646 35.0992 3.41068 37.2354L12.097 42.6818C12.5663 42.9757 12.9488 43.3842 13.2085 43.8724C15.4816 48.1406 27.4174 70.7088 27.7545 71.1811C28.0095 71.5382 27.5166 81.5591 27.5166 82.6376L27.5166 83.1505C27.5166 85.0688 29.072 86.6242 30.9903 86.6242L58.3226 86.6242C60.2451 86.6242 61.8949 85.0624 61.8046 83.1422C61.3607 73.695 60.1849 72.5994 62.2946 72.6455C62.7231 72.6538 63.1522 72.5764 63.5778 72.4784C65.4732 72.0452 67.0863 70.8989 68.1199 69.2515L83.0395 45.4601C84.8882 42.5112 84.3534 38.7376 81.9623 36.396" transform="translate(54.642147 0)" id="path60" fill="#262321" fill-rule="evenodd" stroke="none" />
        <path d="M6.45358 0.234327C5.71102 -0.221951 4.7359 0.0076535 4.27668 0.75317L0.235117 7.3258C-0.223525 8.07014 0.00963273 9.04467 0.753366 9.50212C1.01191 9.66091 1.29819 9.73705 1.58151 9.73705C2.11216 9.73705 2.63102 9.46966 2.92969 8.98328L6.97183 2.41124C7.42988 1.6669 7.19732 0.692375 6.45358 0.23434" transform="translate(71.26519 17.719364)" id="path62" fill="#262321" fill-rule="evenodd" stroke="none" />
      </g>
    </g>
  </g>
</svg>