<?xml version="1.0" encoding="utf-8"?>
<svg width="200px" height="198px" viewbox="0 0 200 198" version="1.1" xmlns:xlink="http://www.w3.org/1999/xlink" xmlns="http://www.w3.org/2000/svg">
  <defs>
    <rect width="200" height="198" id="artboard_1" />
    <clipPath id="clip_1">
      <use xlink:href="#artboard_1" clip-rule="evenodd" />
    </clipPath>
  </defs>
  <g id="logo-br-white" clip-path="url(#clip_1)">
    <g id="g10" transform="translate(6.8351974 13.5)">
      <g id="g12">
        <path d="M27.0857 20.0265C30.8448 20.0265 33.0703 17.6476 33.0703 13.8114C33.0703 10.358 31.1522 9.82132 28.8503 9.82132L27.6993 9.82132C26.7782 9.82132 26.395 10.2822 26.1645 11.2791L24.9372 16.7264C24.6297 17.955 24.4763 18.7221 24.4763 19.1824C24.4763 19.719 24.7837 20.0265 25.7813 20.0265L27.0857 20.0265ZM22.4048 41.3567C27.0087 41.3567 29.5404 38.9014 29.5404 34.9883C29.5404 31.3826 27.5459 30.154 24.8602 30.154L23.0185 30.154C22.3278 30.154 22.0216 30.308 21.8676 31.1522L20.1799 38.9014C20.0265 39.6691 19.8731 40.2828 19.8731 40.666C19.8731 41.1269 20.1035 41.3567 20.8706 41.3567L22.4048 41.3567ZM0 49.7972C0 49.337 0.383672 47.6493 0.69075 46.191L10.3582 1.38079C10.5884 0.306845 11.126 0 12.2764 0L34.9889 0C45.6537 0 50.5644 3.14602 50.5644 10.8958C50.5644 20.4097 43.8891 23.1719 39.2853 24.17C38.6716 24.3234 38.3648 24.4762 38.3648 24.7837C38.3648 25.1669 38.5946 25.3974 39.3617 25.5508C42.2009 26.1645 47.8792 28.3129 47.8792 35.5255C47.8792 46.3443 39.0555 51.1786 25.3974 51.1786L1.84141 51.1786C0.613921 51.1786 0 50.7177 0 49.7972" transform="translate(0 94.36108)" id="path14" fill="#E31D25" fill-rule="evenodd" stroke="none" />
        <path d="M34.6814 20.4097C34.6814 17.4177 33.9907 13.2742 29.7708 13.2742C22.7886 13.2742 19.4122 24.5533 19.4122 32.7634C19.4122 36.3696 20.1793 40.1293 24.2464 40.1293C31.4584 40.1293 34.6814 28.7732 34.6814 20.4097L34.6814 20.4097ZM0 33.7609C0 14.9624 10.5884 0 31.8423 0C45.6537 0 53.5569 6.59828 53.5569 20.0259C53.5569 37.7504 43.889 53.4805 22.2508 53.4805C8.82319 53.4805 6.77901e-06 47.2655 6.77901e-06 33.7609" transform="translate(50.871822 93.21014)" id="path16" fill="#E31D25" fill-rule="evenodd" stroke="none" />
        <path d="M2.83917 51.5625C0.998114 50.9482 0 50.4879 0 48.9531C0 47.5717 1.6118 40.743 1.91805 39.4387C2.22548 38.2113 2.68575 37.7504 3.52986 37.7504C5.14108 37.7504 9.05419 41.3567 15.7301 41.3567C19.6426 41.3567 21.1004 40.1293 21.1004 37.9044C21.1004 35.2187 19.0289 34.2976 15.2698 31.6894L13.9648 30.6913C9.05419 27.085 6.06219 23.7092 6.06219 16.727C6.06219 5.67834 13.812 0 28.3135 0C33.531 0 39.5156 0.767099 43.1219 2.37832C44.5033 2.99201 44.8101 3.52986 44.8101 4.75722C44.8101 5.75476 43.3523 12.1232 42.6617 14.2717C42.4318 15.0388 42.2014 15.7289 41.0504 15.7289C39.0554 15.7289 35.6025 12.1996 29.4639 12.1996C26.6253 12.1996 24.7073 12.7369 24.7073 14.732C24.7073 17.1873 27.6993 18.4152 31.536 21.2544L33.3006 22.6352C38.0578 26.1651 40.1293 29.7714 40.1293 35.9094C40.1293 47.1885 33.1472 53.4805 16.1133 53.4805C10.1287 53.4805 6.44544 52.7128 2.83916 51.5625" transform="translate(101.51316 93.21014)" id="path18" fill="#E31D25" fill-rule="evenodd" stroke="none" />
        <path d="M2.83917 51.5625C0.997517 50.9482 0 50.4879 0 48.9531C0 47.5717 1.61121 40.743 1.91805 39.4387C2.22548 38.2113 2.68573 37.7504 3.52986 37.7504C5.14047 37.7504 9.05419 41.3567 15.7295 41.3567C19.6426 41.3567 21.1004 40.1293 21.1004 37.9044C21.1004 35.2187 19.0289 34.2976 15.2692 31.6894L13.9648 30.6913C9.05419 27.085 6.06159 23.7092 6.06159 16.727C6.06159 5.67834 13.8114 0 28.3135 0C33.5305 0 39.5156 0.767099 43.1219 2.37832C44.5033 2.99201 44.8096 3.52986 44.8096 4.75722C44.8096 5.75476 43.3517 12.1232 42.6611 14.2717C42.4318 15.0388 42.2014 15.7289 41.0504 15.7289C39.0548 15.7289 35.6019 12.1996 29.4639 12.1996C26.6253 12.1996 24.7073 12.7369 24.7073 14.732C24.7073 17.1873 27.6987 18.4152 31.536 21.2544L33.3 22.6352C38.0578 26.1651 40.1293 29.7714 40.1293 35.9094C40.1293 47.1885 33.1472 53.4805 16.1133 53.4805C10.1281 53.4805 6.44544 52.7128 2.83916 51.5625" transform="translate(142.79346 93.21014)" id="path20" fill="#E31D25" fill-rule="evenodd" stroke="none" />
        <path d="M6.90513 8.3262C8.32661 8.3262 9.32088 7.58753 9.32088 5.73995C9.32088 4.09202 8.58227 3.23961 6.84843 3.23961L5.88265 3.23961C5.62669 3.23961 5.5129 3.35275 5.5129 3.63767L5.5129 7.985C5.5129 8.21246 5.62669 8.3262 5.82573 8.3262L6.90513 8.3262ZM0 18.4715L0 0.511192C0 0.170004 0.142285 0 0.482889 0L7.64469 0C12.7877 0 14.8621 1.30675 14.8621 5.62623C14.8621 8.04186 13.5554 9.97473 11.7935 10.6275C11.5376 10.7134 11.452 10.7981 11.452 10.9409C11.452 11.0256 11.4804 11.0824 11.566 11.2246L15.6582 18.1018C15.8857 18.4146 15.8857 18.5562 15.8857 18.6706C15.8857 18.8406 15.7714 18.9543 15.5439 18.9543L10.4292 18.9543C10.0882 18.9543 9.83226 18.8121 9.69063 18.5562L6.28043 12.0776C6.16657 11.907 6.10988 11.7933 5.85416 11.7933L5.68339 11.7933C5.51291 11.7933 5.42796 11.8786 5.42796 12.0492L5.42796 18.4715C5.42796 18.8121 5.25718 18.9542 4.88815 18.9542L0.511385 18.9542C0.142285 18.9542 0 18.8121 0 18.4715" transform="translate(2.8340795 151.89691)" id="path22" fill="#262321" fill-rule="evenodd" stroke="none" />
        <path d="M1.3558e-05 18.4715L1.3558e-05 0.539636C1.3558e-05 0.141573 0.142176 0 0.511808 0L12.2482 0C12.6178 0 12.8163 0.141573 12.8163 0.511191L12.8163 3.4949C12.8163 3.89297 12.6178 4.00672 12.2482 4.00672L5.91116 4.00672C5.74056 4.00672 5.62683 4.12044 5.62683 4.34791L5.62683 6.96199C5.62683 7.16102 5.74056 7.27475 5.93959 7.27475L10.8556 7.27475C11.1968 7.27475 11.3674 7.41633 11.3674 7.75811L11.3674 10.7418C11.3674 11.0824 11.1968 11.2246 10.8556 11.2246L5.93959 11.2246C5.74056 11.2246 5.62683 11.3389 5.62683 11.5652L5.62683 14.5495C5.62683 14.8338 5.74056 14.947 5.96743 14.947L12.8737 14.947C13.2712 14.947 13.3565 15.1175 13.3565 15.4593L13.3565 18.4715C13.3565 18.8121 13.2712 18.9542 12.8737 18.9542L0.511802 18.9542C0.142169 18.9542 0 18.7837 0 18.4715" transform="translate(21.988407 151.89691)" id="path24" fill="#262321" fill-rule="evenodd" stroke="none" />
        <path d="M5.39994 17.9028L0.08589 0.851809C0.0284312 0.653361 0 0.482774 0 0.369036C0 0.141573 0.142759 0 0.454933 0L5.14405 0C5.39995 0 5.62682 0.0852935 5.68369 0.340604L9.1792 13.896C9.26449 14.2084 9.32137 14.3227 9.49197 14.3227C9.691 14.3227 9.74727 14.2366 9.83257 13.9245L13.4987 0.397467C13.5555 0.170004 13.6693 0 14.0389 0L18.2731 0C18.529 0 18.6421 0.170004 18.6421 0.369036C18.6421 0.539636 18.5853 0.767099 18.529 0.909255L13.0437 17.8743C12.8169 18.642 12.5888 18.9542 11.7939 18.9542L6.64983 18.9542C5.99645 18.9542 5.65525 18.7837 5.39995 17.9028" transform="translate(38.101166 151.89691)" id="path26" fill="#262321" fill-rule="evenodd" stroke="none" />
        <path d="M13.6971 9.97474C13.6971 5.82525 12.3335 3.97828 9.74725 3.97828C7.21848 3.97828 5.79682 5.76898 5.79682 10.0032C5.79682 13.8961 7.07631 15.8284 9.71882 15.8284C12.3335 15.8284 13.6971 13.9245 13.6971 9.97474L13.6971 9.97474ZM0 10.0032C0 4.2342 3.04057 0 9.74726 0C16.1696 0 19.4945 3.94986 19.4945 9.9463C19.4945 15.6294 16.4255 19.8074 9.74726 19.8074C3.32491 19.8074 0 15.9138 0 10.0032" transform="translate(57.823746 151.47038)" id="path28" fill="#262321" fill-rule="evenodd" stroke="none" />
        <path d="M1.3558e-05 18.3857L1.3558e-05 0.511191C1.3558e-05 0.198435 0.142169 0 0.511205 0L5.17188 0C5.54092 0 5.65524 0.198435 5.65524 0.511191L5.65524 14.5779C5.65524 14.8623 5.79739 14.947 6.0533 14.947L11.452 14.947C11.8217 14.947 11.9348 15.146 11.9348 15.4873L11.9348 18.4715C11.9348 18.7837 11.8217 18.9542 11.452 18.9542L0.511191 18.9542C0.170587 18.9542 0 18.8121 0 18.3857" transform="translate(80.444725 151.89691)" id="path30" fill="#262321" fill-rule="evenodd" stroke="none" />
        <path d="M2.7116e-05 11.9633L2.7116e-05 0.511192C2.7116e-05 0.227449 0.142183 0 0.511815 0L5.0872 0C5.4278 0 5.54212 0.227449 5.54212 0.511192L5.54212 11.1677C5.54212 13.6119 6.28079 15.1175 8.86702 15.1175C11.3389 15.1175 12.0782 13.6686 12.0782 11.3668L12.0782 0.511192C12.0782 0.227449 12.1913 0 12.5325 0L16.5677 0C16.9089 0 17.051 0.227449 17.051 0.511192L17.051 11.8786C17.051 17.0214 14.4079 19.3809 8.32679 19.3809C2.52995 19.3809 0 17.1073 0 11.9633" transform="translate(94.852066 151.89691)" id="path32" fill="#262321" fill-rule="evenodd" stroke="none" />
        <path d="M5.05815 18.4715L5.05815 4.46105C5.05815 4.20575 4.94441 4.09201 4.74537 4.09201L0.511192 4.09201C0.141559 4.09201 0 3.92141 0 3.58021L0 0.511191C0 0.141573 0.141559 0 0.511192 0L15.2603 0C15.6294 0 15.7715 0.170004 15.7715 0.511191L15.7715 3.58021C15.7715 3.92141 15.6294 4.09201 15.2603 4.09201L11.054 4.09201C10.8265 4.09201 10.7134 4.20575 10.7134 4.46105L10.7134 18.4715C10.7134 18.8121 10.5428 18.9542 10.23 18.9542L5.54092 18.9542C5.22875 18.9542 5.05816 18.8121 5.05816 18.4715" transform="translate(114.77431 151.89691)" id="path34" fill="#262321" fill-rule="evenodd" stroke="none" />
        <path d="M0 18.4715L0 0.511191C0 0.170004 0.170587 0 0.539637 0L5.14405 0C5.48466 0 5.65524 0.170004 5.65524 0.511191L5.65524 18.4715C5.65524 18.8121 5.42778 18.9542 5.14405 18.9542L0.511205 18.9542C0.170601 18.9542 1.3558e-05 18.8121 1.3558e-05 18.4715" transform="translate(133.52957 151.89691)" id="path36" fill="#262321" fill-rule="evenodd" stroke="none" />
        <path d="M13.6971 9.97474C13.6971 5.82525 12.3335 3.97828 9.74726 3.97828C7.21789 3.97828 5.79682 5.76898 5.79682 10.0032C5.79682 13.8961 7.07633 15.8284 9.71883 15.8284C12.3335 15.8284 13.6971 13.9245 13.6971 9.97474L13.6971 9.97474ZM0 10.0032C0 4.2342 3.04059 0 9.74726 0C16.1696 0 19.4939 3.94986 19.4939 9.9463C19.4939 15.6294 16.4255 19.8074 9.74726 19.8074C3.32491 19.8074 0 15.9138 0 10.0032" transform="translate(142.31068 151.47038)" id="path38" fill="#262321" fill-rule="evenodd" stroke="none" />
        <path d="M1.3558e-05 18.4715L1.3558e-05 0.568068C1.3558e-05 0.198435 0.142169 0 0.511205 0L6.96258 0C7.47377 0 7.64439 0.170004 7.78596 0.454926L12.4466 12.532C12.5035 12.7025 12.5888 12.7594 12.7025 12.7594C12.8731 12.7594 12.9016 12.6457 12.9016 12.4751L12.9016 0.596499C12.9016 0.198435 13.0147 0 13.4412 0L16.7092 0C17.0789 0 17.2495 0.170018 17.2495 0.596499L17.2495 18.2156C17.2495 18.7837 17.1073 18.9543 16.5671 18.9543L10.9403 18.9543C10.031 18.9543 9.77571 18.8121 9.3492 17.7607L4.80225 6.64983C4.71755 6.4508 4.68912 6.39394 4.54694 6.39394C4.40419 6.39394 4.34791 6.47865 4.34791 6.67768L4.34791 18.4715C4.34791 18.8122 4.23417 18.9543 3.80766 18.9543L0.511191 18.9543C0.170587 18.9543 0 18.8122 0 18.4715" transform="translate(164.93166 151.89691)" id="path40" fill="#262321" fill-rule="evenodd" stroke="none" />
        <path d="M41.6125 45.0181C41.6764 44.8564 41.6101 44.6798 41.4632 44.5862C39.6014 43.4033 29.4028 36.9276 24.8446 34.0316C23.4709 33.1591 22.3466 31.9506 21.5736 30.5183L14.4694 17.3608L13.9161 16.3438C13.912 16.3343 13.9102 16.3248 13.9055 16.3159L13.8954 16.2976L13.8996 16.3005C13.6046 15.7165 13.5157 15.1081 13.5939 14.5365C13.6413 14.2 13.7296 13.8725 13.9037 13.5804C14.3409 12.8483 15.1021 12.423 15.9918 12.4111L29.9341 12.4241L30.1936 12.4247C30.283 12.4289 30.3583 12.4176 30.4453 12.4188C30.9897 12.4283 31.4707 12.3625 31.9179 12.2535C31.9251 12.2518 31.9322 12.2506 31.9399 12.2482C32.6098 12.0812 33.1862 11.7945 33.6465 11.3496C34.5924 10.4356 35.138 8.91381 35.1037 7.27773L35.1072 7.08343C35.1084 6.97799 35.109 6.88321 35.1102 6.77363C35.1149 6.29321 35.1185 5.87443 35.1226 5.49768C35.1126 5.32945 35.0118 5.20209 34.8643 5.17958L9.86028 0C9.80817 0.00295565 9.73589 0.0456092 9.6737 0.113128L0.297246 14.9191C-0.069417 15.4979 -0.0996243 16.2247 0.222026 16.8289C2.66313 21.4179 14.0814 42.6771 14.3024 43.1569C14.6092 43.8221 14.1259 54.0302 14.1259 55.6764L14.1259 56.19C14.1259 56.3594 14.2668 56.5004 14.4357 56.5004L41.8648 56.5004C42.0402 56.5004 42.1835 56.3487 42.1835 56.174C42.1835 55.5076 41.2553 45.9285 41.6125 45.0181" transform="translate(71.50026 27.255142)" id="path42" fill="#FFFFFF" fill-rule="evenodd" stroke="none" />
        <path d="M0.151755 14.9196C0.151755 14.9196 8.60531 16.673 9.74027 16.9076C9.81846 16.9242 9.89429 16.8892 9.93633 16.8223L18.6908 2.93387C18.8282 2.7147 18.7121 2.42502 18.461 2.36165L9.13429 0.0117785C8.97139 -0.0296954 8.80081 0.0407927 8.71431 0.184738L0.0273736 14.6341C-0.0401453 14.7473 0.0232249 14.8924 0.151768 14.9197" transform="translate(97.10293 12.3876295)" id="path44" fill="#FFFFFF" fill-rule="evenodd" stroke="none" />
        <path d="M0.0584215 13.9603C0.032363 15.1592 -0.00850087 18.4646 0.00155917 20.0373C0.00155917 20.103 0.0359152 20.1563 0.0915979 20.1913L3.35432 22.2077C5.43054 23.3438 5.93048 22.816 6.69937 21.6971L15.413 7.6321C15.5006 7.49054 15.4864 7.30987 15.378 7.18369L9.33002 0.132841C9.16238 -0.0614585 8.85494 -0.0395352 8.71752 0.178451L0.0880457 13.8679C0.0696746 13.8975 0.059018 13.9265 0.0584215 13.9603" transform="translate(109.772644 16.82)" id="path46" fill="#FFFFFF" fill-rule="evenodd" stroke="none" />
        <path d="M0.15227 15.673L10.4244 17.8007C10.5026 17.8173 10.5837 17.7824 10.6258 17.7125L19.4205 3.17893C19.5514 2.96272 19.4395 2.68135 19.196 2.61441L9.77808 0.0139648C9.614 -0.0316444 9.44045 0.0370541 9.35159 0.182193L0.0284583 15.3869C-0.0408367 15.4994 0.0225334 15.6463 0.15227 15.673" transform="translate(83.13343 8.740032)" id="path48" fill="#FFFFFF" fill-rule="evenodd" stroke="none" />
        <path d="M37.9951 3.85585L36.9839 3.22204L31.9258 0.046382C31.7824 -0.0430603 31.5935 0.000772807 31.5046 0.144122L30.2506 2.16702C29.8312 2.77953 29.3893 3.27474 28.9231 3.66807C28.076 4.38126 27.1466 4.73906 26.11 4.73906C25.2381 4.73906 24.2849 4.47546 23.2483 3.98142C23.0499 3.88723 22.8538 3.79779 22.6488 3.68584L19.6527 1.82761C19.5159 1.74349 19.3393 1.78021 19.2446 1.91053C19.0106 2.23039 18.7553 2.53132 18.4739 2.80321C17.7139 3.53714 16.8088 4.06613 15.7929 4.39311C14.857 4.69463 13.8286 4.82494 12.7256 4.76808L0.382092 4.75801C0.092425 4.75801 -0.0912048 5.06723 0.0468158 5.32194L0.80681 6.71813C1.58813 8.1552 2.72606 9.36538 4.11099 10.235L27.1964 24.7241C27.3753 24.836 27.6105 24.7821 27.7224 24.6032L39.2556 6.18145C39.8154 5.25323 39.3273 4.7118 38.6082 4.23436C38.4174 4.10701 38.1941 3.98202 37.9951 3.85585" transform="translate(88.87991 38.085056)" id="path50" fill="#2B6A95" fill-rule="evenodd" stroke="none" />
        <path d="M0.178396 8.50156L6.20149 12.282C7.23278 12.9289 8.61654 12.6268 9.28175 11.6032L11.7418 8.00755C11.8384 7.86657 11.8289 7.67879 11.7193 7.54788L5.50549 0.136278C5.33784 -0.0627533 5.02567 -0.040247 4.88884 0.180708L0.0569708 7.9791C-0.0532152 8.15621 0.00128801 8.39079 0.17841 8.50156" transform="translate(122.335075 27.010468)" id="path52" fill="#FFFFFF" fill-rule="evenodd" stroke="none" />
        <path d="M40.6506 0.0919708L24.4543 26.0326C24.0929 26.6083 23.5308 27.0088 22.8685 27.1592C22.6796 27.203 22.4865 27.225 22.2975 27.225C21.8242 27.225 21.3604 27.0917 20.9499 26.834L0.293178 13.8691C0.126727 13.7648 -0.0693492 13.9496 0.0242417 14.1214L1.25043 16.3747C2.03174 17.8106 3.16966 19.022 4.5546 19.891L20.5145 29.9072C21.4487 30.4918 22.5546 30.6826 23.6315 30.4344C24.706 30.188 25.6207 29.5382 26.2077 28.6046L41.1801 4.72898C42.1101 3.24452 41.9632 1.39993 40.971 0.0736268C40.8916 -0.033007 40.7217 -0.0211573 40.6506 0.0919844" transform="translate(94.29947 39.205223)" id="path54" fill="#FFFFFF" fill-rule="evenodd" stroke="none" />
        <path d="M4.64319 29.8537C4.03779 29.474 3.61604 28.8799 3.45609 28.1821C3.29675 27.4843 3.41877 26.7669 3.80026 26.1621L17.3552 4.50785C17.7177 3.9309 18.2799 3.53165 18.9421 3.3806C19.6008 3.23132 20.2832 3.34445 20.859 3.7052L28.7812 8.67805C28.8713 8.73374 28.9891 8.70589 29.0448 8.61526L30.3273 6.52423C30.3823 6.43538 30.3551 6.31928 30.2662 6.2636L21.2944 0.632631C20.6286 0.215017 19.8757 0 19.1086 0C18.7395 0 18.3693 0.0497579 18.0026 0.149274C16.9459 0.438927 16.0721 1.18649 15.4905 2.11471L0.629363 25.8114C-0.579056 27.739 0.00500969 30.292 1.93314 31.501L10.9595 37.1664C11.0484 37.222 11.1656 37.1954 11.2219 37.1065L12.5334 35.0315C12.5903 34.9426 12.563 34.8248 12.4736 34.7685L4.64319 29.8537" transform="translate(58.013027 3.176338)" id="path56" fill="#FFFFFF" fill-rule="evenodd" stroke="none" />
        <path d="M13.6038 10.148L9.54736 16.7433C9.24762 17.2314 8.72694 17.4998 8.19382 17.4998C7.91008 17.4998 7.62219 17.4234 7.36333 17.264C6.61636 16.805 6.38357 15.827 6.84324 15.08L10.8997 8.48407C11.3594 7.73594 12.3385 7.5055 13.0837 7.96339C13.8301 8.42306 14.0635 9.40104 13.6038 10.148L13.6038 10.148ZM20.0641 4.40748L13.1353 0.0583774C12.9564 -0.0535711 12.7212 0.000335561 12.6093 0.178637L0.0583808 20.2282C-0.0535745 20.4065 0.000332171 20.6417 0.178627 20.7536L7.11219 25.1057C7.29108 25.217 7.52624 25.1631 7.6382 24.9848L20.1844 4.93231C20.2963 4.75401 20.2424 4.51944 20.0641 4.40748" transform="translate(64.91041 10.053916)" id="path58" fill="#2B6A95" fill-rule="evenodd" stroke="none" />
        <path d="M80.6439 43.9342L65.6714 67.8098C65.0844 68.7434 64.1698 69.3932 63.0952 69.6396C62.0183 69.8878 60.9124 69.697 59.9782 69.1124L44.0183 59.0962C42.6334 58.2272 41.4955 57.0158 40.7142 55.5799L39.488 53.3266C39.3944 53.1548 39.5904 52.97 39.7569 53.0743L60.4136 66.0392C60.8241 66.2969 61.288 66.4302 61.7613 66.4302C61.9502 66.4302 62.1433 66.4082 62.3323 66.3644C62.9945 66.214 63.5567 65.8135 63.918 65.2378L80.1143 39.2972C80.1854 39.1841 80.3554 39.1722 80.4348 39.2788C81.427 40.6051 81.5739 42.4497 80.6439 43.9342L80.6439 43.9342ZM58.5293 83.7555L31.1002 83.7555C30.9314 83.7555 30.7904 83.6145 30.7904 83.4451L30.7904 82.9315C30.7904 81.2854 31.2737 71.0773 30.9669 70.412C30.746 69.9322 19.3277 48.673 16.8865 44.0841C16.5649 43.4799 16.5951 42.753 16.9618 42.1743L26.3382 27.3683C26.4004 27.3008 26.4727 27.2581 26.5248 27.2552L51.5289 32.4347C51.6764 32.4572 51.7771 32.5846 51.7871 32.7528C51.783 33.1296 51.7794 33.5484 51.7747 34.0288C51.7735 34.1384 51.7729 34.2331 51.7717 34.3386L51.7682 34.5329C51.8025 36.169 51.257 37.6908 50.311 38.6047C49.8507 39.0496 49.2743 39.3363 48.6044 39.5034C48.5967 39.5057 48.5896 39.5069 48.5825 39.5087C48.1352 39.6177 47.6542 39.6834 47.1098 39.674C47.0228 39.6728 46.9475 39.684 46.8581 39.6799L46.5987 39.6793L32.6563 39.6663C31.7666 39.6781 31.0054 40.1034 30.5683 40.8356C30.3941 41.1276 30.3058 41.4552 30.2585 41.7916C30.1803 42.3633 30.2691 42.9716 30.5641 43.5557L30.5599 43.5527L30.57 43.5711C30.5748 43.58 30.5765 43.5895 30.5807 43.5989L31.1339 44.616L38.2381 57.7735C39.0111 59.2058 40.1354 60.4142 41.5091 61.2868C46.0673 64.1828 56.2659 70.6585 58.1277 71.8414C58.2746 71.935 58.341 72.1115 58.277 72.2732C57.9198 73.1837 58.848 82.7627 58.848 83.4291C58.848 83.6039 58.7047 83.7555 58.5293 83.7555L58.5293 83.7555ZM15.7107 38.2079L14.3992 40.2829C14.3429 40.3718 14.2257 40.3984 14.1368 40.3427L5.11044 34.6774C3.1823 33.4684 2.59824 30.9153 3.80665 28.9878L18.6677 5.29108C19.2494 4.36287 20.1232 3.61529 21.1799 3.32564C21.5466 3.22612 21.9168 3.17637 22.2859 3.17637C23.053 3.17637 23.8059 3.39138 24.4717 3.809L33.4435 9.43997C33.5324 9.49565 33.5596 9.61175 33.5045 9.7006L32.2221 11.7916C32.1664 11.8823 32.0485 11.9101 31.9585 11.8544L24.0363 6.88157C23.4605 6.52082 22.7781 6.40769 22.1194 6.55696C21.4572 6.70801 20.895 7.10727 20.5325 7.68422L6.97755 29.3385C6.59608 29.9433 6.47405 30.6606 6.63339 31.3584C6.79332 32.0562 7.21508 32.6504 7.82047 33.0301L15.6509 37.9449C15.7403 38.0011 15.7675 38.119 15.7107 38.2079L15.7107 38.2079ZM17.7129 35.0387C17.6009 35.217 17.3658 35.2709 17.1869 35.1596L10.2533 30.8075C10.075 30.6956 10.0211 30.4604 10.133 30.2821L22.684 10.2325C22.7959 10.0542 23.0311 10.0003 23.2099 10.1123L30.1388 14.4614C30.3171 14.5733 30.371 14.8079 30.259 14.9862L17.7129 35.0387ZM37.6493 8.92224C37.7382 8.77711 37.9117 8.7084 38.0758 8.75401L47.4937 11.3545C47.7372 11.4214 47.8491 11.7028 47.7182 11.919L38.9235 26.4525C38.8814 26.5224 38.8002 26.5574 38.7221 26.5408L28.45 24.413C28.3203 24.3864 28.2569 24.2395 28.3262 24.1269L37.6493 8.92224ZM50.9815 12.5724C51.068 12.4284 51.2386 12.3579 51.4015 12.3994L60.7282 14.7493C60.9793 14.8127 61.0954 15.1023 60.958 15.3215L52.2035 29.2099C52.1615 29.2769 52.0857 29.3118 52.0075 29.2952C50.8725 29.0607 42.4189 27.3073 42.4189 27.3073C42.2904 27.28 42.227 27.1349 42.2946 27.0218L50.9815 12.5724ZM63.6544 16.9985C63.7918 16.7805 64.0993 16.7586 64.2669 16.9529L70.3149 24.0037C70.4233 24.1299 70.4375 24.3105 70.3499 24.4521L61.6363 38.5171C60.8674 39.636 60.3674 40.1638 58.2912 39.0277L55.0285 37.0113C54.9728 36.9764 54.9385 36.923 54.9385 36.8573C54.9284 35.2846 54.9693 31.9792 54.9953 30.7803C54.9959 30.7465 55.0066 30.7175 55.025 30.6879L63.6544 16.9985ZM73.2998 44.2665L61.7666 62.6883C61.6546 62.8672 61.4195 62.9211 61.2406 62.8091L38.1552 48.32C36.7703 47.4504 35.6323 46.2402 34.851 44.8032L34.091 43.407C33.953 43.1523 34.1366 42.8431 34.4263 42.8431L46.7698 42.8531C47.8728 42.91 48.9011 42.7797 49.8371 42.4781C50.853 42.1512 51.7581 41.6222 52.5181 40.8883C52.7995 40.6163 53.0548 40.3154 53.2887 39.9956C53.3835 39.8652 53.5601 39.8285 53.6969 39.9126L56.693 41.7709C56.898 41.8828 57.0941 41.9723 57.2925 42.0665C58.3291 42.5605 59.2822 42.8241 60.1542 42.8241C61.1908 42.8241 62.1202 42.4663 62.9673 41.7531C63.4335 41.3598 63.8754 40.8646 64.2948 40.2521L65.5488 38.2292C65.6376 38.0858 65.8266 38.042 65.97 38.1314L71.0281 41.3071L72.0393 41.9409C72.2383 42.0671 72.4616 42.1921 72.6524 42.3194C73.3715 42.7968 73.8596 43.3383 73.2998 44.2665L73.2998 44.2665ZM73.0048 27.1467L79.2187 34.5583C79.3282 34.6893 79.3377 34.877 79.2412 35.018L76.7811 38.6136C76.1159 39.6372 74.7321 39.9393 73.7008 39.2925L67.6777 35.512C67.5006 35.4013 67.4461 35.1667 67.5563 34.9896L72.3882 27.1912C72.525 26.9702 72.8372 26.9477 73.0048 27.1467L73.0048 27.1467ZM82.2527 36.525C82.1645 36.4391 82.1485 36.304 82.2184 36.2021L82.2782 36.1145C82.896 35.2123 82.8374 34.0086 82.1348 33.171L74.3992 23.9451L74.4206 23.9107L68.1984 16.6525L66.618 14.8085C65.8249 13.8838 64.8664 13.1256 63.799 12.5682C63.1397 12.2235 62.4401 11.9539 61.7109 11.7697L50.7819 9.0194L38.1877 5.54225C36.7922 5.08495 35.9593 5.72352 35.39 6.62154C35.3166 6.73704 35.1602 6.76784 35.0435 6.69439L26.2997 1.20679C25.904 0.958003 25.487 0.747704 25.0569 0.571192C23.9249 0.106776 22.697 -0.0970008 21.4738 0.043989C20.7706 0.12573 20.1036 0.311746 19.4745 0.571192C18.0855 1.14696 16.9049 2.12554 16.0898 3.42517L10.3564 12.5682L7.795 16.6525L1.11675 27.3008C-1.02522 30.7175 0.00608077 35.2236 3.42281 37.3673L12.1406 42.833C12.6103 43.128 12.9941 43.5379 13.2554 44.0278C15.5365 48.3111 27.5146 70.9594 27.8529 71.4333C28.1088 71.7916 27.6147 81.8481 27.6147 82.9304L27.6147 83.4451C27.6147 85.3703 29.175 86.9311 31.1002 86.9311L58.5293 86.9311C60.4587 86.9311 62.1143 85.3638 62.0237 83.4368C61.5782 73.9561 60.3982 72.8567 62.5159 72.9029C62.9454 72.9112 63.3754 72.8336 63.8031 72.7353C65.7052 72.3005 67.3241 71.1501 68.3613 69.4968L83.3338 45.6212C85.189 42.6618 84.6529 38.8749 82.2527 36.525" transform="translate(54.835724 0)" id="path60" fill="#262321" fill-rule="evenodd" stroke="none" />
        <path d="M6.47632 0.235157C5.73113 -0.222738 4.75196 0.00768061 4.29229 0.755839L0.235828 7.35176C-0.223843 8.09874 0.00894829 9.07672 0.755913 9.53579C1.01478 9.69514 1.30267 9.77155 1.58641 9.77155C2.11952 9.77155 2.64022 9.50321 2.93995 9.01511L6.99641 2.41979C7.45608 1.67281 7.22271 0.694828 6.47632 0.235171" transform="translate(71.51782 17.78215)" id="path62" fill="#262321" fill-rule="evenodd" stroke="none" />
      </g>
    </g>
  </g>
</svg>