<?xml version="1.0" encoding="utf-8"?>
<svg width="210px" height="77px" viewbox="0 0 210 77" version="1.1" xmlns:xlink="http://www.w3.org/1999/xlink" xmlns="http://www.w3.org/2000/svg">
  <defs>
    <rect width="210" height="77" id="artboard_1" />
    <clipPath id="clip_1">
      <use xlink:href="#artboard_1" clip-rule="evenodd" />
    </clipPath>
  </defs>
  <g id="logo-br-menu" clip-path="url(#clip_1)">
    <g id="g10" transform="translate(7 5)">
      <g id="g12">
        <path d="M19.4452 14.3773C22.1439 14.3773 23.7416 12.6694 23.7416 9.91544C23.7416 7.43658 22.3646 7.05087 20.712 7.05087L19.8857 7.05087C19.2244 7.05087 18.9493 7.38172 18.7839 8.09744L17.9027 12.0086C17.682 12.8901 17.5719 13.4409 17.5719 13.7713C17.5719 14.1566 17.7926 14.3773 18.5083 14.3773L19.4452 14.3773ZM16.0847 29.691C19.3899 29.691 21.2075 27.9279 21.2075 25.119C21.2075 22.53 19.7756 21.6484 17.8475 21.6484L16.5253 21.6484C16.0295 21.6484 15.8096 21.7586 15.699 22.3646L14.487 27.9279C14.3773 28.479 14.2672 28.9196 14.2672 29.1952C14.2672 29.5256 14.4326 29.691 14.9829 29.691L16.0847 29.691ZM9.7335e-06 35.7502C9.7335e-06 35.4197 0.275156 34.2082 0.495863 33.1612L7.43615 0.991717C7.60157 0.220298 7.98729 0 8.81358 0L25.1186 0C32.7754 0 36.3009 2.25858 36.3009 7.82229C36.3009 14.6524 31.5086 16.6359 28.2034 17.352C27.7629 17.4621 27.5426 17.5723 27.5426 17.7926C27.5426 18.0681 27.7076 18.2331 28.2583 18.3433C30.2966 18.7839 34.3732 20.3263 34.3732 25.5043C34.3732 33.2717 28.0384 36.7419 18.2332 36.7419L1.32172 36.7419C0.440577 36.7419 0 36.4114 0 35.7501" transform="translate(62.51232 2.2714179)" id="path14" fill="#FFFFFF" fill-rule="evenodd" stroke="none" />
        <path d="M24.8983 14.6524C24.8983 12.5044 24.4024 9.52973 21.3729 9.52973C16.3603 9.52973 13.9363 17.6272 13.9363 23.5217C13.9363 26.1103 14.487 28.8094 17.4069 28.8094C22.5845 28.8094 24.8983 20.6567 24.8983 14.6524L24.8983 14.6524ZM0 24.2374C0 10.7417 7.60158 0 22.86 0C32.7754 0 38.4493 4.73743 38.4493 14.3773C38.4493 27.102 31.5086 38.3944 15.9742 38.3944C6.33431 38.3944 0 33.9326 0 24.2374" transform="translate(99.0339 1.4451287)" id="path16" fill="#FFFFFF" fill-rule="evenodd" stroke="none" />
        <path d="M2.03828 37.0174C0.716561 36.5764 0 36.246 0 35.1446C0 34.1529 1.15714 29.25 1.37699 28.3136C1.59771 27.4324 1.92813 27.102 2.53414 27.102C3.69085 27.102 6.50013 29.6906 11.2928 29.6906C14.1017 29.6906 15.1483 28.8094 15.1483 27.2122C15.1483 25.284 13.6611 24.6227 10.962 22.7503L10.0256 22.0341C6.50015 19.4452 4.35171 17.0212 4.35171 12.0086C4.35171 4.07657 9.91544 0 20.3267 0C24.0724 0 28.3689 0.550721 30.9579 1.70786C31.9496 2.14844 32.1699 2.53414 32.1699 3.41528C32.1699 4.13143 31.1233 8.70343 30.6274 10.2459C30.4624 10.797 30.297 11.2924 29.4707 11.2924C28.0384 11.2924 25.5596 8.75872 21.1526 8.75872C19.1147 8.75872 17.7377 9.14401 17.7377 10.5763C17.7377 12.3394 19.8857 13.2206 22.6401 15.2589L23.907 16.2501C27.3223 18.7843 28.8094 21.3733 28.8094 25.7799C28.8094 33.8773 23.7968 38.3944 11.568 38.3944C7.27157 38.3944 4.62727 37.8433 2.03827 37.0174" transform="translate(135.39008 1.4451287)" id="path18" fill="#FFFFFF" fill-rule="evenodd" stroke="none" />
        <path d="M2.03829 37.0174C0.716152 36.5764 0 36.246 0 35.1446C0 34.1529 1.15673 29.25 1.377 28.3136C1.59729 27.4324 1.92813 27.102 2.53414 27.102C3.69042 27.102 6.50013 29.6906 11.2924 29.6906C14.1017 29.6906 15.1483 28.8094 15.1483 27.2122C15.1483 25.284 13.6611 24.6227 10.962 22.7503L10.0256 22.0341C6.50015 19.4452 4.35171 17.0212 4.35171 12.0086C4.35171 4.07657 9.91544 0 20.3263 0C24.072 0 28.3689 0.550721 30.9575 1.70786C31.9492 2.14844 32.1695 2.53414 32.1695 3.41528C32.1695 4.13143 31.1229 8.70343 30.627 10.2459C30.462 10.797 30.297 11.2924 29.4703 11.2924C28.038 11.2924 25.5592 8.75872 21.1526 8.75872C19.1147 8.75872 17.7377 9.14401 17.7377 10.5763C17.7377 12.3394 19.8853 13.2206 22.6402 15.2589L23.9066 16.2501C27.3223 18.7843 28.8094 21.3733 28.8094 25.7799C28.8094 33.8773 23.7969 38.3944 11.568 38.3944C7.27114 38.3944 4.62686 37.8433 2.03829 37.0174" transform="translate(165.02579 1.4451287)" id="path20" fill="#FFFFFF" fill-rule="evenodd" stroke="none" />
        <path d="M4.95729 5.9775C5.97792 5.9775 6.69194 5.4472 6.69194 4.12122C6.69194 2.93772 6.16121 2.32577 4.91689 2.32577L4.22329 2.32577C4.03957 2.32577 3.95793 2.40699 3.95793 2.61154L3.95793 5.73297C3.95793 5.89627 4.03957 5.9775 4.18246 5.9775L4.95729 5.9775ZM0 13.2609L0 0.367425C0 0.122048 0.102065 0 0.347018 0L5.48802 0C9.18057 0 10.6698 0.938134 10.6698 4.03915C10.6698 5.77337 9.73171 7.16101 8.46655 7.63007C8.28326 7.69131 8.2216 7.75255 8.2216 7.85461C8.2216 7.91585 8.24201 7.95625 8.30367 8.05832L11.2414 12.9957C11.4047 13.2201 11.4047 13.3218 11.4047 13.4038C11.4047 13.5259 11.3226 13.6077 11.1593 13.6077L7.4876 13.6077C7.24222 13.6077 7.05893 13.5055 6.9573 13.3218L4.50906 8.6707C4.42699 8.54821 4.38658 8.46657 4.20286 8.46657L4.0804 8.46657C3.95793 8.46657 3.89668 8.5278 3.89668 8.65028L3.89668 13.2609C3.89668 13.5055 3.77421 13.6076 3.50926 13.6076L0.367001 13.6076C0.102065 13.6076 0 13.5055 0 13.2609" transform="translate(64.546776 43.577217)" id="path22" fill="#FFFFFF" fill-rule="evenodd" stroke="none" />
        <path d="M0 13.2609L0 0.387413C0 0.102065 0.102065 0 0.367002 0L8.79316 0C9.05852 0 9.20099 0.102065 9.20099 0.367425L9.20099 2.50948C9.20099 2.79525 9.05852 2.87648 8.79316 2.87648L4.24369 2.87648C4.12122 2.87648 4.03957 2.95813 4.03957 3.12143L4.03957 4.99811C4.03957 5.141 4.12121 5.22308 4.26368 5.22308L7.79336 5.22308C8.03789 5.22308 8.16079 5.32472 8.16079 5.56967L8.16079 7.71173C8.16079 7.95625 8.03789 8.05832 7.79336 8.05832L4.26368 8.05832C4.12121 8.05832 4.03957 8.1404 4.03957 8.30326L4.03957 10.4457C4.03957 10.6494 4.12121 10.7311 4.28409 10.7311L9.24224 10.7311C9.52716 10.7311 9.58882 10.8536 9.58882 11.0986L9.58882 13.2609C9.58882 13.5055 9.52716 13.6077 9.24224 13.6077L0.367002 13.6077C0.102065 13.6077 0 13.4851 0 13.2609" transform="translate(78.29809 43.577217)" id="path24" fill="#FFFFFF" fill-rule="evenodd" stroke="none" />
        <path d="M3.8767 12.8528L0.0616617 0.611955C0.0204112 0.469067 0 0.347014 0 0.264936C0 0.102065 0.102484 0 0.326598 0L3.69298 0C3.8767 0 4.03956 0.0612334 4.0804 0.244525L6.58987 9.97629C6.65111 10.2007 6.69194 10.2824 6.81441 10.2824C6.95731 10.2824 6.9977 10.2208 7.05894 9.99669L9.69047 0.285347C9.73171 0.122048 9.81294 0 10.0787 0L13.1185 0C13.3022 0 13.3834 0.122048 13.3834 0.264936C13.3834 0.387413 13.3426 0.550712 13.3022 0.652777L9.36428 12.8324C9.2014 13.3834 9.03768 13.6076 8.46655 13.6076L4.77398 13.6076C4.30491 13.6076 4.05996 13.485 3.87668 12.8528" transform="translate(89.86566 43.577217)" id="path26" fill="#FFFFFF" fill-rule="evenodd" stroke="none" />
        <path d="M9.83337 7.16058C9.83337 4.18203 8.85441 2.85564 6.99772 2.85564C5.18226 2.85564 4.16164 4.14121 4.16164 7.18099C4.16164 9.97625 5.08021 11.363 6.97688 11.363C8.85441 11.363 9.83337 9.99614 9.83337 7.16058L9.83337 7.16058ZM0 7.18099C0 3.03935 2.18288 0 6.99772 0C11.6084 0 13.9954 2.83566 13.9954 7.14059C13.9954 11.2201 11.7921 14.2196 6.99772 14.2196C2.38702 14.2196 0 11.4246 0 7.18099" transform="translate(104.02479 43.271454)" id="path28" fill="#FFFFFF" fill-rule="evenodd" stroke="none" />
        <path d="M9.73348e-06 13.1993L9.73348e-06 0.367425C9.73348e-06 0.142459 0.102065 0 0.367011 0L3.71296 0C3.97791 0 4.05998 0.142459 4.05998 0.367425L4.05998 10.4661C4.05998 10.6698 4.16204 10.7311 4.34533 10.7311L8.22159 10.7311C8.48695 10.7311 8.56817 10.874 8.56817 11.1188L8.56817 13.2609C8.56817 13.485 8.48695 13.6076 8.22159 13.6076L0.366991 13.6076C0.122467 13.6076 0 13.5055 0 13.1993" transform="translate(120.26472 43.577217)" id="path30" fill="#FFFFFF" fill-rule="evenodd" stroke="none" />
        <path d="M1.9467e-05 8.58903L1.9467e-05 0.367425C1.9467e-05 0.163299 0.102085 0 0.36744 0L3.65217 0C3.8967 0 3.97834 0.163299 3.97834 0.367425L3.97834 8.01791C3.97834 9.77246 4.50907 10.8536 6.36577 10.8536C8.14039 10.8536 8.67112 9.81298 8.67112 8.1608L8.67112 0.367425C8.67112 0.163299 8.75233 0 8.99729 0L11.8942 0C12.1391 0 12.2412 0.163299 12.2412 0.367425L12.2412 8.5278C12.2412 12.2204 10.3437 13.9138 5.97793 13.9138C1.81587 13.9138 0 12.2815 0 8.58903" transform="translate(130.60796 43.577217)" id="path32" fill="#FFFFFF" fill-rule="evenodd" stroke="none" />
        <path d="M3.63133 13.2609L3.63133 3.20308C3.63133 3.01937 3.54926 2.93772 3.40678 2.93772L0.367011 2.93772C0.101637 2.93772 0 2.81524 0 2.57029L0 0.367425C0 0.102065 0.101637 0 0.367011 0L10.9556 0C11.2206 0 11.3226 0.122048 11.3226 0.367425L11.3226 2.57029C11.3226 2.81524 11.2206 2.93772 10.9556 2.93772L7.93585 2.93772C7.77256 2.93772 7.69132 3.01937 7.69132 3.20308L7.69132 13.2609C7.69132 13.5055 7.56886 13.6076 7.34431 13.6076L3.97792 13.6076C3.75382 13.6076 3.63135 13.5055 3.63135 13.2609" transform="translate(144.91042 43.577206)" id="path34" fill="#FFFFFF" fill-rule="evenodd" stroke="none" />
        <path d="M0 13.2609L0 0.367425C0 0.122048 0.122467 0 0.387394 0L3.69297 0C3.9375 0 4.05997 0.122048 4.05997 0.367425L4.05997 13.2609C4.05997 13.5055 3.89668 13.6076 3.69297 13.6076L0.366993 13.6076C0.122467 13.6076 0 13.5055 0 13.2609" transform="translate(158.37509 43.577217)" id="path36" fill="#FFFFFF" fill-rule="evenodd" stroke="none" />
        <path d="M9.83336 7.16058C9.83336 4.18203 8.85399 2.85564 6.9977 2.85564C5.18182 2.85564 4.16162 4.14121 4.16162 7.18099C4.16162 9.97625 5.07976 11.363 6.97728 11.363C8.85395 11.363 9.83336 9.99614 9.83336 7.16058L9.83336 7.16058ZM0 7.18099C0 3.03935 2.18289 0 6.9977 0C11.6084 0 13.995 2.83566 13.995 7.14059C13.995 11.2201 11.7921 14.2196 6.9977 14.2196C2.38655 14.2196 0 11.4246 0 7.18099" transform="translate(164.67918 43.271454)" id="path38" fill="#FFFFFF" fill-rule="evenodd" stroke="none" />
        <path d="M0 13.2609L0 0.407824C0 0.14246 0.102046 0 0.366992 0L4.99854 0C5.36553 0 5.488 0.122048 5.58964 0.326603L8.93562 8.9973C8.97645 9.11977 9.03769 9.16017 9.11933 9.16017C9.2418 9.16017 9.2622 9.07851 9.2622 8.95605L9.2622 0.42824C9.2622 0.142464 9.34344 4.86675e-06 9.64961 4.86675e-06L11.9958 4.86675e-06C12.2612 4.86675e-06 12.3836 0.122053 12.3836 0.42824L12.3836 13.0772C12.3836 13.4851 12.2811 13.6077 11.8937 13.6077L7.85415 13.6077C7.20137 13.6077 7.01809 13.5055 6.71191 12.7511L3.44759 4.77401C3.38677 4.63112 3.36635 4.5903 3.26388 4.5903C3.16183 4.5903 3.12101 4.65153 3.12101 4.79443L3.12101 13.2609C3.12101 13.5055 3.03977 13.6076 2.73359 13.6076L0.367011 13.6076C0.122486 13.6076 1.9467e-05 13.5055 1.9467e-05 13.2609" transform="translate(180.91916 43.577217)" id="path40" fill="#FFFFFF" fill-rule="evenodd" stroke="none" />
        <path d="M28.5873 30.9264C28.6306 30.815 28.5855 30.6938 28.4843 30.6296C27.2051 29.8169 20.1989 25.3682 17.0677 23.3788C16.1241 22.7788 15.3514 21.9491 14.8202 20.9655L9.94032 11.9261L9.55971 11.2274C9.55674 11.221 9.55588 11.2146 9.55291 11.2082L9.5461 11.1959L9.54866 11.1976C9.34581 10.7966 9.285 10.3785 9.339 9.98603C9.37089 9.75426 9.43171 9.52972 9.55163 9.329C9.85187 8.82634 10.3745 8.53333 10.986 8.5261L20.5642 8.53503L20.742 8.53503C20.8037 8.53843 20.8555 8.52993 20.9151 8.53078C21.2889 8.53801 21.6197 8.49293 21.9268 8.41766C21.9319 8.41638 21.937 8.41553 21.9421 8.41426C22.4026 8.29944 22.7981 8.10212 23.1141 7.79678C23.7639 7.16866 24.139 6.12294 24.1156 4.99982L24.1177 4.86544C24.1186 4.79357 24.119 4.7285 24.1199 4.6528C24.1224 4.32323 24.1254 4.03532 24.1284 3.77676C24.1216 3.66067 24.0522 3.57348 23.9506 3.55775L6.77339 0C6.73809 0.00212677 6.68791 0.031045 6.64581 0.0778193L0.204009 10.2488C-0.0476625 10.6465 -0.0684143 11.1453 0.152509 11.5603C1.82949 14.7137 9.67325 29.3181 9.82507 29.6481C10.0364 30.1048 9.70388 37.1175 9.70388 38.2482L9.70388 38.601C9.70388 38.7172 9.80126 38.8142 9.91693 38.8142L28.7603 38.8142C28.8807 38.8142 28.9789 38.7104 28.9789 38.5901C28.9789 38.1321 28.341 31.5515 28.5873 30.9264" transform="translate(11.448219 18.723999)" id="path42" fill="#FFFFFF" fill-rule="evenodd" stroke="none" />
        <path d="M0.104217 10.2493C0.104217 10.2493 5.91246 11.454 6.69196 11.6152C6.74555 11.6263 6.79743 11.6025 6.82635 11.5561L12.8404 2.01576C12.9348 1.86521 12.8553 1.66576 12.6826 1.62239L6.27521 0.00808854C6.16337 -0.0204014 6.04642 0.0280714 5.98688 0.12674L0.0187418 10.0536C-0.0276091 10.131 0.0161917 10.231 0.104221 10.2493" transform="translate(29.03644 8.510022)" id="path44" fill="#FFFFFF" fill-rule="evenodd" stroke="none" />
        <path d="M0.040579 9.59058C0.0227131 10.4143 -0.00577197 12.6848 0.00102688 13.7654C0.00145029 13.8105 0.0252633 13.8475 0.063112 13.8713L2.30467 15.2559C3.73058 16.0367 4.07419 15.6744 4.60237 14.9055L10.5884 5.24312C10.6488 5.14615 10.639 5.02156 10.565 4.9348L6.40931 0.091052C6.29492 -0.0424819 6.08356 -0.0267428 5.98958 0.12252L0.0609852 9.52722C0.0478012 9.5472 0.0414258 9.56719 0.0405741 9.59058" transform="translate(37.740147 11.55487)" id="path46" fill="#FFFFFF" fill-rule="evenodd" stroke="none" />
        <path d="M0.104577 10.7669L7.16139 12.229C7.21582 12.2401 7.2711 12.2158 7.30002 12.1682L13.3417 2.18386C13.4315 2.03544 13.3545 1.84237 13.1874 1.7956L6.71784 0.00949259C6.60515 -0.0215475 6.48565 0.0252317 6.42483 0.125165L0.0195205 10.5705C-0.0281055 10.6479 0.0156953 10.7487 0.104577 10.7669" transform="translate(19.4396 6.004248)" id="path48" fill="#FFFFFF" fill-rule="evenodd" stroke="none" />
        <path d="M26.1014 2.64948L25.407 2.21359L21.9322 0.0319891C21.8339 -0.0296726 21.7038 0.000520742 21.643 0.0991795L20.7818 1.48894C20.4931 1.9091 20.1899 2.24974 19.8696 2.51978C19.2879 3.00968 18.6496 3.25548 17.9368 3.25548C17.3381 3.25548 16.6836 3.07475 15.9713 2.73539C15.8348 2.6699 15.6999 2.60951 15.5592 2.53254L13.5009 1.25547C13.4069 1.19763 13.2861 1.22358 13.2211 1.31246C13.0599 1.53232 12.8843 1.739 12.6912 1.92568C12.169 2.43005 11.5468 2.79365 10.8498 3.01818C10.2068 3.22529 9.50004 3.31459 8.74264 3.2759L0.262045 3.26909C0.0634478 3.26909 -0.0624306 3.48172 0.0319794 3.65608L0.554201 4.6159C1.09089 5.6025 1.87252 6.43432 2.82426 7.03096L18.6836 16.9851C18.8061 17.0621 18.9681 17.0251 19.0446 16.9022L26.9677 4.24592C27.3522 3.6093 27.0166 3.2372 26.5229 2.90847C26.3919 2.82129 26.2384 2.73581 26.1014 2.64948" transform="translate(23.387629 26.163448)" id="path50" fill="#2B6A95" fill-rule="evenodd" stroke="none" />
        <path d="M0.122603 5.84054L4.26084 8.43762C4.9689 8.88159 5.91979 8.67449 6.3761 7.9711L8.06652 5.50118C8.13286 5.40379 8.12648 5.27536 8.05121 5.18521L3.78199 0.0935389C3.6676 -0.0429685 3.45284 -0.0276626 3.35843 0.123727L0.0392552 5.48119C-0.0364471 5.60367 0.000554809 5.76399 0.122603 5.84054" transform="translate(46.370487 18.555613)" id="path52" fill="#FFFFFF" fill-rule="evenodd" stroke="none" />
        <path d="M27.9262 0.0631899L16.7996 17.8838C16.5517 18.2798 16.1655 18.5545 15.7097 18.6582C15.5804 18.688 15.4477 18.7029 15.3176 18.7029C14.9927 18.7029 14.6742 18.6119 14.3922 18.4346L0.2016 9.52784C0.0872073 9.4564 -0.0476065 9.58313 0.0166102 9.70135L0.858631 11.2493C1.39532 12.2355 2.17737 13.0677 3.12869 13.6644L14.0932 20.5456C14.735 20.9474 15.4941 21.078 16.234 20.9079C16.9727 20.7386 17.6012 20.2921 18.004 19.6512L28.2894 3.24927C28.929 2.22906 28.8278 0.961772 28.1465 0.0508624C28.0916 -0.0227034 27.9747 -0.0146294 27.9262 0.0631996" transform="translate(27.110847 26.93303)" id="path54" fill="#FFFFFF" fill-rule="evenodd" stroke="none" />
        <path d="M3.1895 20.5087C2.77389 20.2485 2.48432 19.8402 2.37384 19.3609C2.26472 18.8817 2.34862 18.3888 2.61059 17.9729L11.9228 3.09718C12.1715 2.70083 12.5577 2.42654 13.0129 2.32235C13.4653 2.21944 13.934 2.29811 14.3294 2.54604L19.7724 5.96176C19.8336 6.00046 19.9153 5.98132 19.9535 5.91923L20.8343 4.48227C20.8721 4.42146 20.8534 4.34107 20.7922 4.30281L14.6284 0.43462C14.1712 0.147988 13.6541 0 13.1272 0C12.8739 0 12.6192 0.0344468 12.3675 0.102484C11.6416 0.301505 11.0416 0.815648 10.6415 1.4527L0.432435 17.7322C-0.397808 19.0564 0.00334346 20.8102 1.32817 21.6412L7.52901 25.5328C7.58999 25.5711 7.67054 25.5528 7.70923 25.492L8.61045 24.0661C8.64898 24.0052 8.6307 23.924 8.56924 23.8853L3.1895 20.5087" transform="translate(2.1826177 2.1817007)" id="path56" fill="#FFFFFF" fill-rule="evenodd" stroke="none" />
        <path d="M9.34565 6.97096L6.55898 11.5026C6.35303 11.8377 5.99504 12.0218 5.62906 12.0218C5.43386 12.0218 5.23671 11.9695 5.0581 11.8598C4.54566 11.5447 4.38483 10.8723 4.70097 10.3599L7.48793 5.82871C7.80407 5.31499 8.47632 5.15637 8.98847 5.47106C9.50095 5.7866 9.66157 6.45851 9.34564 6.97096L9.34565 6.97096ZM13.7837 3.02793L9.02369 0.0404573C8.90078 -0.0369435 8.73931 5.35342e-05 8.66238 0.122949L0.0400071 13.8968C-0.0367123 14.0193 0.000158169 14.1804 0.122761 14.257L4.88617 17.2466C5.00861 17.3236 5.17025 17.2866 5.24701 17.1641L13.8666 3.38855C13.9427 3.26607 13.9062 3.10489 13.7837 3.02793" transform="translate(6.9210258 6.9067373)" id="path58" fill="#2B6A95" fill-rule="evenodd" stroke="none" />
        <path d="M55.4002 30.1823L45.1148 46.5842C44.7121 47.2251 44.0835 47.6716 43.3449 47.8409C42.6049 48.011 41.8458 47.8804 41.2041 47.4786L30.2395 40.5974C29.2882 40.0007 28.5062 39.1685 27.9695 38.1823L27.1275 36.6344C27.0632 36.5161 27.1981 36.3894 27.3124 36.4609L41.503 45.3676C41.785 45.5449 42.1035 45.6359 42.4284 45.6359C42.5585 45.6359 42.6912 45.621 42.8205 45.5913C43.2764 45.4875 43.6625 45.2128 43.9105 44.8169L55.037 26.9962C55.0855 26.9184 55.2025 26.9103 55.2573 26.9839C55.9386 27.8948 56.0398 29.1621 55.4002 30.1823L55.4002 30.1823ZM40.2086 57.5382L21.3652 57.5382C21.2495 57.5382 21.1521 57.4412 21.1521 57.325L21.1521 56.9722C21.1521 55.8415 21.4847 48.8288 21.2733 48.3721C21.1215 48.0421 13.2777 33.4377 11.6007 30.2843C11.3798 29.8693 11.4006 29.3705 11.6522 28.9728L18.094 18.8018C18.1361 18.755 18.1863 18.7261 18.2216 18.724L35.3988 22.2817C35.5005 22.2975 35.5698 22.3847 35.5766 22.5008C35.5736 22.7593 35.5706 23.0472 35.5681 23.3768C35.5672 23.4525 35.5668 23.5176 35.566 23.5894L35.5638 23.7238C35.5872 24.8469 35.2121 25.8927 34.5623 26.5208C34.2464 26.8261 33.8509 27.0234 33.3903 27.1383C33.3852 27.1395 33.3801 27.1404 33.375 27.1417C33.068 27.2169 32.7371 27.262 32.3633 27.2548C32.3038 27.2539 32.2519 27.2624 32.1902 27.259L32.0125 27.259L22.4343 27.2501C21.8227 27.2573 21.3001 27.5503 20.9999 28.053C20.8799 28.2537 20.8191 28.4783 20.7872 28.71C20.7332 29.1025 20.794 29.5206 20.9969 29.9216L20.9943 29.9199L21.0011 29.9322C21.0041 29.9386 21.005 29.945 21.0079 29.9514L21.3885 30.6501L26.2684 39.6895C26.7996 40.6731 27.5723 41.5028 28.5159 42.1028C31.6472 44.0922 38.6534 48.5409 39.9326 49.3536C40.0338 49.4178 40.0788 49.539 40.0355 49.6504C39.7892 50.2755 40.4271 56.8561 40.4271 57.3141C40.4271 57.4344 40.3289 57.5382 40.2086 57.5382L40.2086 57.5382ZM10.7931 26.2478L9.89185 27.6737C9.85316 27.7345 9.77261 27.7528 9.71163 27.7145L3.51078 23.8229C2.18596 22.9919 1.78481 21.2381 2.61505 19.9139L12.8242 3.63439C13.2242 2.99734 13.8242 2.4832 14.5501 2.28418C14.8018 2.21613 15.0565 2.18169 15.3098 2.18169C15.8367 2.18169 16.3538 2.32968 16.811 2.61631L22.9748 6.4845C23.036 6.52277 23.0547 6.60315 23.0169 6.66396L22.1361 8.10093C22.0979 8.16302 22.0162 8.18214 21.955 8.14345L16.512 4.72773C16.1166 4.4798 15.6479 4.40114 15.1955 4.50405C14.7404 4.60824 14.3541 4.88252 14.1054 5.27887L4.7932 20.1546C4.53124 20.5705 4.44734 21.0634 4.55646 21.5426C4.66695 22.0219 4.95651 22.4302 5.37211 22.6904L10.7519 26.067C10.8133 26.1057 10.8316 26.1869 10.7931 26.2477L10.7931 26.2478ZM12.168 24.0708C12.0913 24.1933 11.9296 24.2303 11.8072 24.1533L7.04379 21.1637C6.92118 21.0872 6.88431 20.926 6.96103 20.8035L15.5834 7.02969C15.6603 6.90679 15.8218 6.86979 15.9447 6.94719L20.7047 9.93467C20.8272 10.0116 20.8638 10.1728 20.7876 10.2953L12.168 24.0708ZM25.8644 6.12941C25.9252 6.02947 26.0447 5.9827 26.1574 6.01374L32.627 7.79985C32.7941 7.84663 32.8711 8.03969 32.7813 8.18811L26.7396 18.1724C26.7107 18.2201 26.6554 18.2443 26.601 18.2332L19.5442 16.7712C19.4553 16.7529 19.4115 16.6521 19.4591 16.5747L25.8644 6.12941ZM35.0233 8.63676C35.0829 8.53809 35.1998 8.48962 35.3117 8.51811L41.7191 10.1324C41.8918 10.1758 41.9713 10.3752 41.8769 10.5258L35.8628 20.0661C35.8339 20.1125 35.782 20.1363 35.7284 20.1252C34.9489 19.9641 29.1407 18.7593 29.1407 18.7593C29.0526 18.741 29.0088 18.6411 29.0552 18.5637L35.0233 8.63676ZM43.7297 11.6774C43.8237 11.5281 44.0351 11.5124 44.1495 11.6459L48.3051 16.4897C48.3791 16.5764 48.3889 16.701 48.3285 16.798L42.3425 26.4604C41.8143 27.2293 41.4707 27.5916 40.0448 26.8108L37.8033 25.4261C37.7654 25.4023 37.7416 25.3653 37.7412 25.3203C37.7344 24.2397 37.7629 21.9692 37.7807 21.1454C37.7816 21.122 37.788 21.1021 37.8011 21.0821L43.7297 11.6774ZM50.3553 30.4094L42.4323 43.0656C42.3557 43.1885 42.1937 43.2255 42.0712 43.1486L26.2119 33.1944C25.2601 32.5978 24.4785 31.766 23.9418 30.7794L23.4196 29.8195C23.3252 29.6452 23.4511 29.4325 23.6497 29.4325L32.1303 29.4394C32.8877 29.4781 33.5944 29.3887 34.2374 29.1816C34.9344 28.9571 35.5566 28.5935 36.0788 28.0891C36.2719 27.9025 36.4475 27.6958 36.6087 27.4759C36.6738 27.387 36.7945 27.3611 36.8885 27.4189L38.9468 28.696C39.0876 28.773 39.2224 28.8334 39.3589 28.8988C40.0712 29.2382 40.7257 29.4189 41.3244 29.4189C42.0372 29.4189 42.6755 29.1731 43.2573 28.6832C43.5775 28.4132 43.8807 28.0726 44.1694 27.6524L45.0306 26.2626C45.0914 26.164 45.2216 26.1338 45.3198 26.1954L48.7946 28.377L49.4891 28.8129C49.626 28.8993 49.7795 28.9847 49.9105 29.0719C50.4042 29.4007 50.7398 29.7728 50.3553 30.4094L50.3553 30.4094ZM50.1525 18.6492L54.4217 23.7408C54.497 23.831 54.5033 23.9594 54.437 24.0568L52.7466 26.5267C52.2903 27.2301 51.3394 27.4372 50.6313 26.9932L46.4931 24.3962C46.371 24.3196 46.334 24.1593 46.4097 24.0368L49.7289 18.6793C49.8233 18.528 50.0381 18.5126 50.1525 18.6492L50.1525 18.6492ZM56.5059 25.0923C56.4451 25.0328 56.4345 24.9401 56.4821 24.8703L56.5233 24.8099C56.9478 24.1899 56.9074 23.3632 56.4251 22.7878L51.1106 16.4497L51.1255 16.4263L46.8507 11.4397L45.765 10.1728C45.2207 9.53788 44.562 9.01735 43.8284 8.63378C43.3759 8.39733 42.8949 8.21192 42.3935 8.08561L34.886 6.19617L26.234 3.80704C25.2754 3.4932 24.7035 3.93207 24.3122 4.5487C24.2616 4.62781 24.154 4.64949 24.0741 4.59931L18.0672 0.828931C17.7953 0.658401 17.5087 0.513381 17.2135 0.392608C16.4361 0.0728041 15.5922 -0.0671052 14.752 0.0307068C14.2686 0.0864213 13.8106 0.21357 13.3787 0.392608C12.4238 0.787253 11.6132 1.45959 11.0534 2.35307L7.11437 8.63378L5.35467 11.4397L0.767321 18.7546C-0.704515 21.1021 0.00448471 24.198 2.35091 25.6711L8.34032 29.4253C8.66343 29.6277 8.92671 29.9101 9.10613 30.2469C10.673 33.1889 18.9016 48.7476 19.1342 49.0729C19.3098 49.3191 18.9705 56.228 18.9705 56.9712L18.9705 57.325C18.9705 58.6477 20.0426 59.7198 21.3652 59.7198L40.2085 59.7198C41.5337 59.7198 42.6712 58.6433 42.6087 57.3196C42.3034 50.8063 41.492 50.051 42.9468 50.0825C43.2424 50.0888 43.5375 50.0353 43.8314 49.9681C45.1382 49.6687 46.2503 48.8785 46.9626 47.7427L57.2484 31.3411C58.5229 29.3079 58.1547 26.7062 56.5059 25.0923" id="path60" fill="#262321" fill-rule="evenodd" stroke="none" />
        <path d="M4.44954 0.161561C3.9374 -0.153132 3.26514 0.00549456 2.949 0.519209L0.162043 5.05039C-0.154098 5.56283 0.00673802 6.23517 0.51918 6.55029C0.697792 6.66001 0.894942 6.71232 1.09014 6.71232C1.45612 6.71232 1.81411 6.52818 2.02006 6.19308L4.80673 1.66147C5.12265 1.14903 4.96203 0.477121 4.44955 0.161571" transform="translate(11.459949 12.216233)" id="path62" fill="#262321" fill-rule="evenodd" stroke="none" />
      </g>
    </g>
  </g>
</svg>